<?xml version="1.0" encoding="utf-8"?>
<!-- Generator: Adobe Illustrator 16.0.0, SVG Export Plug-In . SVG Version: 6.00 Build 0)  -->
<!DOCTYPE svg PUBLIC "-//W3C//DTD SVG 1.1//EN" "http://www.w3.org/Graphics/SVG/1.1/DTD/svg11.dtd">
<svg version="1.1" id="Calque_1" xmlns="http://www.w3.org/2000/svg" xmlns:xlink="http://www.w3.org/1999/xlink" x="0px" y="0px"
	 width="566.93px" height="737.01px" viewBox="0 0 566.93 737.01" enable-background="new 0 0 566.93 737.01" xml:space="preserve">
<path fill="#F1F1F1" d="M297.718,386.29c0,5.283-5.202,9.565-11.619,9.565c-6.416,0-11.618,4.281-11.618,9.565
	c0,5.283,5.202,9.565,11.618,9.565c12.835,0,23.237-8.565,23.237-19.131c0-10.563-10.402-19.13-23.237-19.13
	C292.516,376.726,297.718,381.009,297.718,386.29z M286.099,407.961c-1.702,0-3.084-1.139-3.084-2.54
	c0-1.402,1.382-2.539,3.084-2.539c1.704,0,3.085,1.137,3.085,2.539C289.184,406.823,287.803,407.961,286.099,407.961z"/>
<path fill="#F1F1F1" d="M282.011,385.857c0,1.417-1.421,2.564-3.174,2.564c-0.861,0-1.642-0.279-2.213-0.73l-0.458-0.938
	l-4.883,3.237l-0.817-3.896c-0.025,0.057-0.205-1.895-0.209-1.807c0.031-0.474-0.002-2.004,0.038-2.87
	c0.071-1.54-0.189-1.031,0.399-4.046c-0.867,0.254-1.71,0.545-2.526,0.875l-13.07,19.479c1.357,9.631,11.461,17.117,23.74,17.117
	c-6.602,0-11.953-4.326-11.953-9.662s5.352-9.66,11.953-9.66c6.603,0,11.953-4.326,11.953-9.662c0-4.113-3.182-7.614-7.659-9.01
	l-3.888,6.478C280.802,383.488,282.011,384.553,282.011,385.857z"/>
<path fill="#F1F1F1" d="M85.531,562.439c9.798,0,20.902-2.139,30.709-4.013c0.658-0.133,1.293-0.247,1.927-0.374
	c3.701-0.866,7.6-1.58,11.652-2.181c0.657-0.093,1.314-0.196,1.989-0.282c0.669-0.098,1.332-0.189,2.007-0.271
	c14.593-2.479,15.769-10.76,15.769-10.76c0.479-5.132,2.048-8.938,5.657-12.984c2.255-2.665,2.728-3.933,4.169-6.01
	c0.34-0.501,0.709-0.991,1.084-1.464c0,0-1.021-7.201,0.606-14.859c-0.127,0.271-4.21,8.915-4.325,9.174
	c-0.299,0.601-0.599,1.188-0.894,1.782c-2.611,5.067-5.546,9.589-9.249,13.198c-5.68,5.535-12.854,10.032-19.979,13.572
	c-0.524,0.277-1.044,0.52-1.574,0.778c-0.536,0.249-1.061,0.503-1.586,0.745c-13.007,6.02-24.943,8.867-25.75,9.053l-21.571,5.638
	L85.531,562.439z"/>
<path fill="#F1F1F1" d="M96.684,601.838c0,0,23.403-2.434,37.46-35.068c0,0,2.243-4.418,3.686-6.021
	c-1.696,0.092-3.484,0.496-5,0.698c-0.069,0-8.667,1.136-14.144,2.181c-4.572,0.881-9.565,1.85-14.681,2.68
	c-2.236,0.358-4.484,0.682-6.751,0.957c-4.002,0.479-7.986,0.791-11.768,0.791c-0.485,0-0.946-0.007-1.408-0.013
	c2.059,1.32,4.175,2.215,6.36,2.773c0.86,0.22,1.725,0.381,2.589,0.502c0.997,0.146,2.019,0.236,3.038,0.259
	c0.294,0,0.56,0.023,0.842,0.023c9.174,0,19.045-4.035,28.8-6.4c-0.805,0.196-33.938,11.579-40.089,35.081
	c0,0,17.552-20.549,34.07-25.832C119.689,574.449,114.039,590.617,96.684,601.838z"/>
<path fill="#F1F1F1" d="M244.661,432.734l32.753,10.032c0,0,8.32-1.004,10.873,0.854l35.854-9.456
	c-12.104-4.551-24.183-1.718-36.574-2.237l-1.274,4.51l-2.502-0.047l-1.379-3.933c-0.975,0-1.919,0.034-2.883,0.059l-0.571,4.911
	l-2.813,0.404l-1.798-6.262C263.81,432.359,253.703,429.736,244.661,432.734z"/>
<path fill="#F1F1F1" d="M224.476,441.209l-0.012,0.126l43.043,10.969l4.198-7.278l-32.187-10.47
	C234.168,436.551,229.141,438.833,224.476,441.209z"/>
<path fill="#F1F1F1" d="M428.99,485.474c0.819-1.308-6.153-11.111-7.225-12.349c-17.062-19.036-30.901-22.287-30.901-22.287
	l-7.183,10.701c18.329,21.266,19.616,38.564,19.616,38.564c0.691,5.753,1.763,9.267,5.522,14.536c0,0,15.245,20.584,23.912,26.701
	c-8.989-21.352-10.361-36.395-12.858-47.488c-3.88-11.515-9.029-12.944-9.623-13.175
	C416.166,478.791,423.339,482.027,428.99,485.474z"/>
<path fill="#F1F1F1" d="M116.473,685.273c12.275,3.31,17.954-13.337,17.954-13.337c0.335-6.303-5.789-9.071-5.789-9.071
	c-2.018,9.289-12.166,14.935-12.166,14.935C113.808,678.019,112.967,683.559,116.473,685.273z"/>
<path fill="#F1F1F1" d="M346.172,444.783c-5.598-3.309-11.25-6.175-16.952-8.591l-36.17,10.137l6.538,7.242l46.677-8.546
	L346.172,444.783z"/>
<path fill="#F1F1F1" d="M464.613,602.991c-14.515-20.48-20.902-35.276-25.672-41.683c-3.65-5.005-24.852-28.04-31.816-36.136
	c4.787,13.747,19.489,35.012,22.263,39.647c2.589,6.492,2.888,12.479,3.321,15.775c2.618,20.388,4.273,30.899,4.273,30.899
	c4.641-22.89,0.663-40.598,0.663-40.598C436.099,566.573,447.856,596.971,464.613,602.991z"/>
<path fill="#F1F1F1" d="M146.196,499.746c-0.081,0.115-0.184,0.229-0.271,0.333c-0.272,0.348-0.548,0.693-0.831,1.062
	c-0.093,0.104-0.178,0.214-0.266,0.312c-0.275,0.357-0.564,0.709-0.864,1.089c-2.605,3.259-6.001,7.416-9.97,12.126
	c-0.514,0.606-1.039,1.224-1.567,1.84c-0.485,0.576-0.974,1.159-1.489,1.747c-1.083,1.269-2.208,2.566-3.361,3.887
	c-0.379,0.426-0.762,0.864-1.146,1.297c-0.387,0.433-0.768,0.883-1.148,1.321c-2.963,3.35-6.095,6.815-9.365,10.32
	c-0.385,0.409-0.789,0.825-1.169,1.239c-0.387,0.41-0.779,0.813-1.16,1.234c-5.437,5.743-12.034,10.097-17.851,15.477
	c0,0,11.516-2.682,24.212-8.442c0.529-0.225,1.06-0.479,1.596-0.731c0.525-0.242,1.057-0.497,1.579-0.761
	c7.122-3.472,14.33-7.896,19.904-13.331c3.801-3.708,6.782-8.568,9.47-14.059c0.288-0.6,0.005,0.012,0.288-0.6l0.57-1.211
	c0.093-0.196,0.173-0.393,0.266-0.588c0.19-0.415,0.38-0.818,0.57-1.239c0.069-0.174,0.15-0.356,0.23-0.536
	c0.259-0.595,0.525-1.188,0.779-1.788c6.331-14.726,12.713-31.025,25.192-43.914l-7.3-13.525c0,0-13.279,22.429-30.831,39.911
	c-0.191,0.185-0.364,0.352-0.537,0.536c-0.225,0.226-0.449,0.444-0.68,0.664c-0.185,0.177-0.37,0.356-0.565,0.53
	c-0.214,0.219-0.438,0.437-0.669,0.645c-0.191,0.174-0.386,0.368-0.583,0.542c-6.088,5.703-12.621,10.657-19.222,13.786
	c0,0,1.319,0.295,3.545,0.295c4.25,0,11.797-1.13,19.789-7.646c0.323-0.253,0.652-0.52,0.974-0.814c0.115-0.09,0.23-0.2,0.34-0.293
	c0.295-0.271,0.606-0.548,0.928-0.837c0.11-0.12,0.22-0.2,0.341-0.304c0.283-0.289,0.572-0.601,0.883-0.9
	c0.979-1.003,1.965-2.059,2.947-3.24c0,0-0.981,1.279-2.74,3.533C146.756,499.036,146.49,499.376,146.196,499.746z"/>
<path fill="#F1F1F1" d="M204.334,457.504c-5.823,5.063-10.235,11.001,4.562,27.504c14.796,16.513,14.646,20.486,1.833,12.949
	c-2.963-1.706-15.355-15.649-7.392,7.843c7.974,23.455,25.329,22.049,31.879,21.904c6.528-0.145,13.792-11.664,18.774-16.658
	c4.982-4.975,1.995-7.387-0.992-9.386c-6.118-0.283-12.374,5.689-21.473,13.814c6.815-13.93,26.604-26.478,34.707-28.472
	c-3.421-5.696,0.847-17.073,0.847-17.073c-44.531,23.761-45.102-24.246-45.102-24.246S210.171,452.429,204.334,457.504z"/>
<path fill="#F1F1F1" d="M370.24,476.048c-0.524-8.143,2.844-9.837-21.069-27.614c-0.692-0.513-10.794,52.921-44.524,24.632
	c0,0,2.566,8.817,1.568,11.803c-1.003,2.987-1.425,4.405,4.981,8.547c6.394,4.116,16.497,14.229,22.188,20.768
	c5.702,6.545-10.812-6.833-15.927-9.398c-5.126-2.559-6.7-1.845-4.002,6.412c0.929,2.814,2.89,5.639,5.496,8.118
	c2.019,1.413,3.915,2.826,5.662,4.232c4.266,2.434,9.26,3.898,14.248,3.569c11.308-0.697,16.583-0.559,24.983-26.16
	c-12.242,6.394-26.188,14.508-16.515,4.411C357.012,495.261,369.536,484.443,370.24,476.048z"/>
<path fill="#F1F1F1" d="M323.218,473.907c14.079,0.146,15.644-20.912,15.644-20.912l-35.006,5.984
	C304.86,462.809,309.125,473.764,323.218,473.907z M325.605,458.271c0.259,2.196-0.427,5.448-3.592,6.51
	c-7.242,1.546-9.053-4.358-9.053-4.358L325.605,458.271z"/>
<path fill="#F1F1F1" d="M397.126,519.016c0,0,2.151-27.718-21.126-47.818c0,0-0.248,17.789-3.535,26.301
	C369.16,506.001,384.321,513.682,397.126,519.016z"/>
<path fill="#F1F1F1" d="M396.395,567.894c4.146-11.671-0.444-31.511-0.444-31.511c-0.877-4.429-1.591-7.215-1.591-7.215
	c-14.41,3.622-22.184,25.942-22.184,25.942c1.346,3.736,2.872,6.953,4.486,9.71C380.982,573.17,392.381,579.224,396.395,567.894z"/>
<path fill="#F1F1F1" d="M165.679,529.624c-0.56,0.266-1.084,0.496-1.55,0.692c-0.658,0.311-1.205,0.541-1.592,0.703
	c-0.444,0.196-0.703,0.313-0.703,0.313c-1.39,0.748-2.583,1.672-3.575,2.721c-3.309,3.477-4.469,8.251-3.758,12.144
	c0.714,3.84,3.25,6.821,7.339,6.821c2.664,0,5.997-1.263,9.917-4.406c0.554-0.443,1.083-0.898,1.603-1.366
	c0.438-0.402,0.853-0.807,1.273-1.211c0.41-0.408,0.79-0.83,1.182-1.251c10.599-11.625,12.737-28.334,12.737-28.334
	C185.665,520.249,172.35,526.603,165.679,529.624z"/>
<path fill="#F1F1F1" d="M246.946,470.771c13.239,2.993,18.641-10.8,18.641-10.8l-37.277-11.537
	C226.753,459.683,233.713,467.79,246.946,470.771z M242.114,455.556l11.404,3.458c-2.034,3.518-4.3,5.443-8.354,4.024
	C241.226,461.666,242.114,455.556,242.114,455.556z"/>
<path fill="#F1F1F1" d="M260.322,494.117c-4.266,2.411-2.98,10.667,0,15.356c2.988,4.691,7.397-0.561,12.806-1.27
	c5.402-0.721,4.286,3.979,8.823,6.532c1.971,1.107,3.435,0.865,4.82-0.051l0.086-0.577l0.669,0.028
	c1.574-1.269,3.148-3.2,5.374-4.809c4.562-3.263,8.822,0.289,14.657-1.695c5.835-1.995-0.283-9.387-3.702-15.943
	c-2.484-4.768-5.138-1.516-8.412,1.69c1.855-2.042,3.7-4.809,4.571-7.67c1.568-5.12-8.532-13.652-4.109-24.471
	c4.398-10.816-7.981-15.078-12.808-15.498c-4.843-0.433-8.413,1.701-11.393,8.96c-2.981,7.254,3.695,15.361,3.695,15.361
	c0.145,1.856,1.004,1.43-2.271,6.55c-3.274,5.121-3.978,13.941-1.135,19.627C267.719,491.118,264.589,491.69,260.322,494.117z"/>
<path fill="#F1F1F1" d="M393.719,523.709c0,0-16.439-8.96-20.603-12.489c0,0-10.885,20.717-3.522,38.113
	C369.594,549.333,376.317,526.383,393.719,523.709z"/>
<path fill="#F1F1F1" d="M191.92,498.777c-1.701-15.949-5.415-29.885-5.415-29.885c-1.004,1.083-23.997,21.634-21.916,53.871
	c0.033,0.404,0.081,0.82,0.109,1.233c0.069,0.705,0.109,1.386,0.196,2.094C164.895,526.09,193.627,514.708,191.92,498.777z"/>
<path fill="#F1F1F1" d="M165.023,597.974c0.218-0.645,0.398-1.296,0.565-1.937c0.202-0.703,0.368-1.39,0.501-2.064
	c1.636-7.888,0.069-14.012,0.069-14.012c-1.039,1.102-4.164,2.844-7.911,4.705c-0.514,0.255-1.044,0.508-1.586,0.768
	c0,0,0,0.007-0.006,0.011c-0.513,0.249-1.031,0.502-1.563,0.744c-3.056,1.442-6.256,2.866-8.943,4.042
	c-3.771,1.649-6.537,2.785-6.537,2.785c-11.1,10.028-0.941,29.303-0.941,29.303C155.071,616.219,162.14,606.543,165.023,597.974z"/>
<path fill="#F1F1F1" d="M175.488,550.376c-3.9,3.834-8.753,7.058-14.075,7.058c-2.571,0-5.271-0.767-8.003-2.583
	c-0.542-0.362-1.078-0.744-1.614-1.188l-0.012,0.011c-0.058,0.047-0.854,0.71-1.949,2.175c-0.363,0.472-0.761,1.061-1.183,1.729
	c-1.43,2.342-3.068,5.859-4.208,10.818c-0.138,0.668-0.277,1.396-0.409,2.121c-0.151,0.704-0.249,1.437-0.364,2.203
	c-0.571,4.129-0.784,9.064-0.37,14.888c0,0,0.628-0.185,1.73-0.564c2.71-1.183,5.374-2.388,7.807-3.518
	c0.543-0.254,1.073-0.508,1.58-0.751c0.225-0.108,0.444-0.212,0.664-0.333c0.293-0.15,0.576-0.312,0.882-0.485
	c8.008-4.635,17.932-12.529,23.882-25.168c0.283-0.604,0.549-1.229,0.813-1.861c0.266-0.612,0.513-1.246,0.751-1.887
	c1.706-4.504,2.923-9.513,3.408-15.135c0,0-2.636,4.986-6.937,9.928c-0.37,0.428-0.773,0.865-1.166,1.293
	C176.317,549.541,175.913,549.967,175.488,550.376z"/>
<path fill="#F1F1F1" d="M241.508,626.718c0.088-18.57,0.813-31.453,3.373-42.535c4.557-19.627,24.754-42.392,34.159-47.8
	l0.841-18.21c-6.544-2.698-33.887,14.796-36.292,33.288c0,0-4.111-18.216,26.339-38.414c0.836-0.559-33.927,10.409-43.221,42.963
	c-0.692,4.532-1.35,8.176-2.041,11.227c-0.099,1.17-0.162,2.369-0.202,3.569c-0.41,14.853-0.375,29.014-0.48,41.906
	c0.784,19.525-7.115,54.443-7.115,54.443c-2.911,13.094-17.811,32.423-23.559,38.147c0,0,31.096-18.631,39.554-39.364
	C232.865,665.939,240.488,648.007,241.508,626.718z"/>
<path fill="#F1F1F1" d="M131.25,609.38c-27.497,24.437-5.921,34.055-5.921,34.055c0.784-9.191,11.428-16.543,12.235-17.098
	c0.023-0.022,0.047-0.039,0.047-0.039c-4.856-6.251-6.194-17.067-6.194-17.067C131.366,609.272,131.302,609.334,131.25,609.38z"/>
<path fill="#F1F1F1" d="M405.959,592.434c3.225,4.105,8.598,9.244,17.305,13.672c0,0,4.18-19.582-0.289-33.772
	c-5.125-15.354-23.301-33.563-22.626-30.992c3.016,11.313,2.758,24.241-3.01,34.151C398.014,585.71,405.959,592.434,405.959,592.434
	z"/>
<path fill="#F1F1F1" d="M114.765,637.252c-12.05,14.086,0.756,36.28,1.073,37.145c16.964-10.574,8.868-27.463,8.868-27.463
	C116.911,644.379,114.765,637.252,114.765,637.252z"/>
<path fill="#F1F1F1" d="M399.254,602.899c0.216,1.836,0.361,2.75,0.468,3.014C399.567,604.926,399.415,603.923,399.254,602.899z"/>
<path fill="#F1F1F1" d="M417.607,637.052c6.967-6.442,4.712-25.43,4.712-25.43c-8.968-4.226-17.852-13.913-21.03-17.914
	c-1.415,1.675-1.097,13.378-1.566,12.204C401.295,615.942,403.177,624.31,417.607,637.052z"/>
<path fill="#F1F1F1" d="M447.533,651.368c-0.139-0.727-1.13-17.893-20.598-35.195c0,0,1.581,18.156-6.146,24.603
	C421.516,640.095,427.94,650.503,447.533,651.368z"/>
<path fill="#F1F1F1" d="M450.537,655.52c-7.294,1.279-20.015-3.011-20.015-3.011s1.13,16.3,22.026,21.738
	C452.549,674.247,453.691,666.082,450.537,655.52z"/>
<path fill="#F1F1F1" d="M453.674,690.565c0,0-3.915,0.208-8.852-0.582c0,0-4.156,4.722-1.435,39.354c0,0,2.15-19.316,6.872-27.043
	c0,0-1.286,11.082,15.586,28.46c0,0-7.006-10.008-8.298-25.168c0,0,11.019,7.012,17.453,17.166
	c-0.99-1.488-1.631-8.724-16.254-23.313C453.12,694.711,453.95,692.861,453.674,690.565z"/>
<path fill="#F1F1F1" d="M119.909,689.204c3.264,12.87-18.208,44.208-18.208,44.208c11.485-6.981,26.119-29.193,26.085-29.666
	c1.706,14.749-2.445,24.09-2.445,24.09c16.965-32.3,7.842-48.654,7.842-48.654C127.058,690.139,120.192,688.662,119.909,689.204z"/>
<path fill="#F1F1F1" d="M345.751,663.881c-0.161-0.717-0.329-1.431-0.479-2.17c-0.991-4.646-1.908-9.686-2.6-15.07
	c-1.138-8.568-1.314-17.863-1.045-27.09c0.035-0.99,0.07-1.995,0.098-2.999c0.046-0.99,0.093-1.971,0.127-2.963
	c0.936-19.108,3.356-37.099,2.821-46.49c-0.86-14.884-5.997-33.467-38.628-51.641c0,0,22.038,17.304,21.18,44.483
	c0,0-9.354-41.313-37.866-42.345l-2.606,18.404l-0.022,0.186c0,0,0.022,0.017,0.075,0.022c0.287,0.081,1.7,0.52,3.822,1.782
	c0.227,0.12,0.421,0.26,0.646,0.387c9.25,5.823,29.926,26.097,36.512,93.086c0.011,0.093,0.022,0.166,0.046,0.242
	c0.087,0.768,0.19,1.533,0.316,2.294c0.121,0.75,0.26,1.506,0.392,2.25c2.163,11.601,6.591,22.867,11.314,32.393
	c0.287,0.571,0.576,1.136,0.857,1.689c0.289,0.559,0.571,1.112,0.843,1.655c5.776,10.983,11.601,19.212,13.994,22.152
	c0,0-5.16-10.793-9.306-28.15C346.074,665.293,345.917,664.596,345.751,663.881z"/>
<path fill="#F1F1F1" d="M369.46,600.339c2.825,7.087,4.4,11.665,4.4,11.665C372.586,607.742,371.093,603.856,369.46,600.339z"/>
<path fill="#F1F1F1" d="M196.735,572.248c0,0-0.507,0.944-1.36,2.65c-0.184,0.369-0.374,0.773-0.611,1.234
	c0.237-0.414,0.427-0.802,0.633-1.198C195.916,573.965,196.383,573.067,196.735,572.248z"/>
<path fill="#F1F1F1" d="M389.24,613.075c-0.329-0.456-0.694-0.928-1.032-1.39c-0.359-0.466-0.699-0.938-1.045-1.424
	c-6.117-8.48-12.052-18.849-17.378-29.216c-0.312-0.582-0.594-1.164-0.888-1.746c-0.301-0.562-0.588-1.144-0.871-1.713
	c0,0-18.584-33.697-28.144-42.624c5.801,9.699,8.313,15.852,10.869,26.687c6.208,7.721,8.008,14.051,12.137,23.196
	c0.283,0.599,0.541,1.193,0.808,1.787c0.271,0.617,0.553,1.229,0.813,1.839c1.931,4.389,3.591,8.431,4.951,11.867
	c1.633,3.517,3.126,7.403,4.4,11.665c0,0-1.575-4.578-4.4-11.665c-1.832-4.001-3.834-7.518-5.852-10.598
	c-0.34-0.531-0.686-1.063-1.031-1.552c-0.335-0.514-0.682-0.986-1.027-1.47c0,0-6.867-11.798-11.14-15.938
	c0.139,2.261,0.616,6.567-1.188,32.941c-0.052,0.675,0.023,1.079,0.023,1.079c0.196,0.321,0.381,0.645,0.559,0.962
	c0.313,0.559,0.635,1.106,0.947,1.661c5.892,10.441,10.424,20.544,13.89,30.162c0.23,0.621,0.456,1.268,0.674,1.878
	c0.22,0.635,0.428,1.275,0.646,1.908c15.684,46.574,6.55,80.448,6.55,80.448c27.855-28.398,15.379-84.912,15.379-84.912
	c32.762,27.376,42.276,66.109,43.746,66.109h0.017c-2.006-40.15-20.884-61.53-42.34-89.566
	C389.284,613.43,389.261,613.105,389.24,613.075z"/>
<path fill="#F1F1F1" d="M209.328,653.606c3.292-15.557,4.538-25.019,5.281-39.417c-9.41,7.059-14.899,27.492-14.899,27.492
	c-3.955,13.607-6.947,31.54-6.4,54.172C193.31,695.853,202.132,687.06,209.328,653.606z"/>
<path fill="#F1F1F1" d="M454.683,686.846c1.441-1.436,2.594-8.447-1.273-8.585c-3.864-0.156-13.171-5.731-13.171-5.731
	c-3.72,0.433,1.574,11.456,2.722,13.308C444.101,687.699,453.265,688.275,454.683,686.846z"/>
<path fill="#F1F1F1" d="M296.852,640.969v14.239v2.513v2.516v42.298c0,0.186,5.929,0.358,6.113,0.537
	c0.877-11.14,5.475-32.658,7.63-48.774c0.128-1.051,1.648-2.076,1.8-3.079c0.16-1.061,0.989-2.105,1.146-3.114
	c0.224-1.424,0.801-2.772,1.026-4.036c0,0,0.202,1.166,0.283,3.144c0.023,0.72,0.16,1.539,0.201,2.474
	c0.021,0.76,0.104,1.58,0.149,2.462c0.554,10.419,1.893,28.882,4.99,42.974c0.172,0.773,0.369,1.521,0.543,2.254
	c0.179,0.757,0.374,1.472,0.558,2.204c0.354,1.308,0.722,2.542,1.113,3.713c0,0,0.081-2.163,0.221-5.681
	c0.046-0.955,0.079-2.018,0.13-3.165c0.047-0.985,0.082-2.047,0.129-3.136c0.588-14.283,1.597-37.336,2.329-46.389
	c-0.058-1.152-0.174-2.57-0.353-4.151c-0.063-0.749-0.161-1.551-0.259-2.387c-0.093-0.738-0.202-1.5-0.301-2.295
	c-3.325-24.419-14.991-75.984-29.982-90.181l0.854,24.609c0,0-6.88-11.439-10.73-29.176c0,0-10.789,28.854-9.243,43.99
	c-0.236-2.088-2.814-17.963-2.024-27.389c0,0-3.897,26.597-9.837,32.329c0,0,4.527-16.099,1.505-28.9
	c0,0-9.457,25.464-15.754,30.042l-2.253,51.554c0.04,9.116-12.842,62.076-16.059,68.057c0,0,11.001-17.732,15.269-29.904
	c0,0,5.892-16.935,6.013-17.942c0.133-0.998,14.179,15.188,14.047,32.128c-0.122,16.93-0.497,20.446-1.621,24.839
	c-1.137,4.382,9.877-19.955,5.501-52.257c-0.588-1.855-1.247-3.77-1.995-5.771c-11.458-30.354-8.736-42.658-4.654-54.108
	c-0.772,2.197-3.229,28.898,6.147,41.78c0,0,0.928-17.459,8.59-22.613c0,0-2.784-6.009-2.855-15.16
	c0.093,2.341,3.639,10.304,9.221,15.734c0,0-17.776,8.87-3.662,37.054c2.25,4.509,3.841,8.487,4.901,12.027
	c0.18,0.623,0.354,1.211,0.508,1.811c0.161,0.646,0.321,1.269,0.444,1.868c0.196,0.894,0.346,1.742,0.46,2.583
	c0.623,4.497-0.362,20.205,1.662,27.164c0.294-11.41,6.774-24.106,7.229-29.654c0.236-2.952-0.253-3.725-0.645-7.727
	c-0.053-0.716-0.134-1.407-0.208-2.134c-0.069-0.702-0.138-1.396-0.214-2.109c-0.991-9.405-1.958-19.635,0.896-25.723
	c0.345-0.731,1.037-1.425,1.037-2.094"/>
<path fill="#F1F1F1" d="M211.081,602.668c0.375-0.438,0.772-0.887,1.176-1.319c0.38-0.433,0.76-0.865,1.152-1.293
	c0.639-0.708,0.708-1.424,1.925-2.127v-8.234c0,0-2.668,1.361-6.388,4.244c-0.421,0.334-0.871,0.674-1.326,1.05
	c-0.433,0.356-0.877,0.726-1.326,1.118c-4.186,3.633-9.099,8.88-12.984,15.897c0,0-1.863-7.64,9.755-20.36
	c0.381-0.421,0.792-0.854,1.206-1.28c0.386-0.414,0.802-0.824,1.211-1.229c2.348-2.345,5.114-4.825,8.412-7.443
	c4.878-6.02,6.734-10.886,9.807-33.771l1.932-16.312c0,0-19.743,27.757-20.606,28.897c-0.018,0.036-0.035,0.047-0.046,0.047
	c-0.485,0,5.287-19.339,8.355-23.791c0,0-10.582,15.166-17.454,16.89c1.326-0.489,6.031-24.684,3.736-34.603
	c1.125,4.607-12.535,37.174-12.535,37.174c-0.605,1.148-1.286,2.428-2.013,3.812c-0.292,0.564-0.581,1.143-0.882,1.713
	c-0.293,0.571-0.587,1.165-0.899,1.758c-4.693,9.238-10.696,22.107-14.443,35.461c-0.196,0.67-0.375,1.338-0.554,2.013
	c-0.18,0.68-0.346,1.349-0.512,2.023c-1.495,6.124-2.445,12.271-2.514,18.164c-0.03,2.438-20.609,10.597-16.019,35.194
	c4.572,24.609,13.158,18.603,10.292,46.359c0,0,11.164-4.002,11.44-62.666c0-9.72,2.037-18.888,4.983-27.231
	c0.213-0.622,0.438-1.251,0.668-1.851c0.23-0.623,0.461-1.229,0.715-1.84c5.006-12.749,11.867-23.362,16.209-30.877
	c0.328-0.577,0.651-1.124,0.955-1.661c0.088-0.138,0.163-0.299,0.255-0.461c0.237-0.461,0.427-0.865,0.611-1.234
	c0.853-1.706,1.36-2.65,1.36-2.65c-0.352,0.818-0.818,1.717-1.338,2.687c-0.207,0.396-0.396,0.784-0.633,1.198
	c-0.07,0.162-0.155,0.335-0.236,0.497c-0.278,0.553-0.554,1.141-0.848,1.787c-3.437,7.241-9.019,20.111-13.031,34.711
	c-0.184,0.663-0.362,1.344-0.543,2.029c-0.167,0.669-0.345,1.349-0.512,2.023c-1.639,6.619-2.906,13.499-3.46,20.303
	c-2.577,31.758,7.081,28.402-2.035,69.538c0,0,11.191-21.749,17.212-68.968c0.38-1.747,0.818-3.43,1.309-5.063
	c0.201-0.65,0.403-1.291,0.623-1.932c0.213-0.627,0.421-1.279,0.656-1.891C197.727,618.86,203.833,610.88,211.081,602.668z"/>
<path fill="#F1F1F1" d="M349.907,617.118c-0.12,7.783,3.65,39.646,3.65,39.646c4.746,9.733,9.825,30.509,3.991,72.571
	c0,0,18.792-47.807,5.321-84.155C360.231,636.227,355.548,627.543,349.907,617.118z"/>
<path fill="#F1F1F1" d="M195.073,429.274c-2.041,0-3.701,1.556-3.701,3.472c0,1.925,1.66,3.481,3.701,3.481
	c2.042,0,3.703-1.557,3.703-3.481C198.776,430.829,197.115,429.274,195.073,429.274z"/>
<path fill="#F1F1F1" d="M225.178,408.187c-2.036,0-3.701,1.568-3.701,3.49c0,1.924,1.666,3.494,3.701,3.494
	c2.053,0,3.708-1.57,3.708-3.494C228.886,409.755,227.232,408.187,225.178,408.187z"/>
<path fill="#F1F1F1" d="M369.715,430.213c2.034,0,3.701-1.562,3.701-3.488s-1.667-3.482-3.701-3.482
	c-2.059,0-3.714,1.556-3.714,3.482S367.656,430.213,369.715,430.213z"/>
<path fill="#F1F1F1" d="M336.589,412.148c2.048,0,3.702-1.568,3.702-3.482c0-1.926-1.654-3.488-3.702-3.488
	c-2.041,0-3.707,1.563-3.707,3.488C332.882,410.579,334.548,412.148,336.589,412.148z"/>
<path fill="#F1F1F1" d="M298.272,371.169l-2.398-3.479c-2.082-0.561-4.239-0.999-6.461-1.307l-2.654,4.423
	c5.118,0.587,9.87,2.054,13.967,4.19l4.105-3.961c-0.719-0.356-1.46-0.69-2.208-1.014c-0.62,0.421-1.046,0.668-1.118,0.708
	L298.272,371.169z"/>
<path fill="#F1F1F1" d="M250.399,378.392c0.128-0.435-0.306-1.408-0.199-1.773c-0.9,0.732-0.852,0.766-1.654,1.559
	c-0.74,3.606-1.275,6.23-1.288,6.297l-3.329-0.506c-2.335,3.836-3.649,8.082-3.649,12.555c0,9.232,5.57,17.512,14.328,23.146
	l4.204-4.072c-6.699-4.763-10.932-11.543-10.932-19.073c0-3.166,0.754-6.193,2.114-8.997
	C249.548,384.497,249.193,382.475,250.399,378.392z"/>
<path fill="#F1F1F1" d="M308.197,372.882l-4.191,4.076c7.104,4.764,11.625,11.752,11.625,19.564c0,7.236-3.881,13.792-10.137,18.516
	l4.296,4.029c8.238-5.605,13.451-13.618,13.451-22.545C323.24,387.031,317.383,378.533,308.197,372.882z"/>
<path fill="#F1F1F1" d="M281.76,422.504c-7.369,0-14.172-1.821-19.743-4.901l-4.099,3.984c6.747,3.523,14.957,5.61,23.842,5.61
	c9.289,0,17.858-2.307,24.783-6.142l-4.198-3.949C296.637,420.491,289.504,422.504,281.76,422.504z"/>
<path fill="#F1F1F1" d="M213.917,401.083c-5.641,3.42-33.361,24.279-33.361,24.279c-5.923,4.896-9.536,8.201-9.536,8.201
	s11.721,20.556,15.499,27.297c8.373-9.458,30.669-29.639,62.354-39.273c-8.333-6.439-13.499-15.297-13.499-25.064
	c0-0.728,0.038-1.446,0.096-2.162l-1.829-3.961C226.919,393.392,220.586,396.894,213.917,401.083z M195.073,439.248
	c-3.701,0-6.729-2.917-6.729-6.503c0-3.575,3.028-6.494,6.729-6.494c3.697,0,6.724,2.919,6.724,6.494
	C201.798,436.331,198.77,439.248,195.073,439.248z M225.178,418.167c-3.701,0-6.723-2.917-6.723-6.49c0-3.588,3.021-6.5,6.723-6.5
	c3.708,0,6.724,2.912,6.724,6.5C231.902,415.25,228.886,418.167,225.178,418.167z"/>
<path fill="#F1F1F1" d="M316.085,420.36c38.689,11.491,60.941,37.069,60.941,37.069s11.383-17.367,20.065-27.683
	c-16.911-20.175-50.92-38.655-71.498-44.757c1.625,3.617,2.543,7.484,2.543,11.533C328.137,405.691,323.558,414.046,316.085,420.36z
	 M369.715,420.233c3.701,0,6.711,2.906,6.711,6.492c0,3.587-3.01,6.492-6.711,6.492c-3.702,0-6.729-2.905-6.729-6.492
	C362.986,423.139,366.013,420.233,369.715,420.233z M336.589,402.173c3.702,0,6.723,2.918,6.723,6.492
	c0,3.576-3.021,6.506-6.723,6.506c-3.707,0-6.717-2.93-6.717-6.506C329.872,405.091,332.882,402.173,336.589,402.173z"/>
<path fill="#F1F1F1" d="M404.448,367.422c0.858,8.702,0.771,16.767,0.771,16.767s0.412-0.223,5.896,0
	c0.458-5.794-0.124-15.147-1.164-22.019c-0.219,0.928-0.582,1.823-1.188,2.616C407.164,366.879,406.067,367.228,404.448,367.422z"/>
<path fill="#F1F1F1" d="M563.116,111.445c1.247,44.132,0.088,85.371-1.635,115.058c-7.819,134.748-56.881,146.677-97.031,150.829
	c-12.646,1.309-50.34,2.287-50.34,2.287c0.228-8.201-1.197-20.426-3.063-29.028c0.719-0.645,1.43-1.27,2.117-1.862
	c132.5,15.754,146.043-156.091,147.709-237.017C560.873,111.711,561.886,110.09,563.116,111.445z"/>
<path fill="#F1F1F1" d="M421.71,340.649l-1.623,1.225c-0.026,0.021-1.167,0.883-2.893,2.277
	c98.864,15.765,126.118-110.231,125.732-109.25c-22.113,56.255-34.489,63.932-56.882,79.389
	c-16.528,19.293-44.534,17.42-65.507,18.241c0.586,2.133,0.731,3.333,0.985,6.095L421.71,340.649z"/>
<path fill="#F1F1F1" d="M159.186,375.382c5.487-0.105,5.893-0.258,5.893-0.258s0.016-3.295,0.333-7.509
	c-3.245-4.224-3.662-7.295-4.232-14.032C159.758,361.15,158.818,368.944,159.186,375.382z"/>
<path fill="#F1F1F1" d="M11.996,113.46c0.161,0.227,0.299,0.506,0.307,0.786c2.265,80.802,21.494,247.39,142.772,226.454
	c1.067,1.04,2.483,1.33,3.356,1.503c0.57,0.113,1.067,0.211,1.464,0.534c-2.207,8.997-4.271,19.677-4.428,28.63
	c-47.889-3.432-157.156,35.967-145.309-257.194c0.011-0.271,0,0,0.011-0.271C10.17,113.901,10.323,111.103,11.996,113.46z"/>
<path fill="#F1F1F1" d="M158.573,328.121c-17.202,0.099-65.247,0.404-75.249-29.344c-16.121-12.471-41.367-31.938-55.967-91.556
	c-0.316-1.288,21.393,145.581,126.461,129.588c0.264-1.897,1.529-3.894,3.121-6.163
	C157.719,329.535,158.231,328.719,158.573,328.121z"/>
<path fill="#F1F1F1" d="M230.279,383.115c-2.578-5.585-4.318-10.895-5.92-18.555c-0.541-2.588-0.652-6.119-1.344-9.16
	c-0.662-2.914-0.828-4.042-1.086-6.247c-0.114,0.149-0.411-1.171-0.533-1.011c-4.282,5.708-3.348,6.195-2.208,8.122
	c0.729,1.233,1.369,3.402,1.8,5.772c1.248,6.859-4.601,18.044-5.786,20.216l-0.798,1.708l-2.411,1.234
	c-3.867,1.403-16.306,7.621-21.234,7.621c-0.318,0-0.608-0.021-0.872-0.06c-0.416-0.059-0.653,0.054-1.193,0.033
	c-0.608-0.051-1.3,0.053-1.965,0.053c-3.883,0-5.197-3.752-6.252-6.768c-0.613-1.75-1.538-4.393-2.6-5.003
	c-0.896-0.516-1.566-1.042-2.077-1.571c-0.859-0.889-1.271-1.785-1.559-2.647c-0.345-0.325-0.662-0.632-0.991-0.946
	c-1.889-1.806-3.526-3.449-4.925-5.034c-0.293,3.81-0.4,7.473-0.236,10.822c1.988-0.048,3.491-0.043,4.624-0.019
	c-1.981,23-1.693,41.558-1.693,41.558c25.273-20.667,43.151-32.271,59.329-39.972L230.279,383.115z"/>
<path fill="#F1F1F1" d="M401.715,386.682c0.557-4.334,0.12-13.995-0.455-18.887c-0.407,0.192-0.381,8.931,0,0
	c-2.714,1.279-11.15,9.493-12.164,12.126c-1.602,4.158-4.607,13.423-10.288,6.392c-4.481-5.54-0.055-24.436-0.051-31.671
	c-6.736,7.71-16.186,13.347-24.293,19.467c1.314-11.406,6.548-22.788,6.25-34.244c-8.939,11.986-9.271,25.84-27.361,26.292
	c-0.088-9.896,0.771-19.779,1.184-29.66c-3.631,8.265-4.841,15.36-5.948,24.331c-3.365-6.646-8.34-13.295-10.928-20.204
	c-1.454,7.682-5.612,20.256-10.98,25.943c5.698,2.575,11.496,6.124,15.267,11.243c9.733,3.338,19.298,7.182,28.64,11.493
	c15.976,7.374,33.063,16.033,45.426,28.864c1.051-10.094,1.297-20.269,0.992-30.408L401.715,386.682z"/>
<path fill="#F1F1F1" d="M302.702,390.98c0.038,0.083,0.076,0.153,0.118,0.195L302.702,390.98z"/>
<g>
	<path fill="#F1F1F1" d="M405.301,349.737c5.95-5.773,12.588-10.778,12.588-10.778c-1.88-20.486-14.381-19.113-20.838-26.669
		c-6.459-7.557-4.1-13.738-13.18-25.417c-9.08-11.679-11.632-21.295-41.612-21.982c-16.244-0.372-21.464-1.134-24.59-1.922
		c-7.253-1.105-20.513,2.35-28.421,3.566c-7.909,1.217-9.709,6.336-13.946,8.162s-26.205-7.553-33.505-9.378
		c-2.82-0.705-6.687-0.637-10.439-0.254c-11.107,5.196-14.769,7.973-25.693,12.604c-13.605,5.77-10.858,6.458-25.283,16.075
		c-14.426,9.618-9.618,8.244-16.487,21.295c-6.87,13.052,3.744,5.497-3.967,16.487c-7.711,10.99,4.654,0,4.654,14.427
		c0,14.425,2.627,18.047,12.365,27.221c1.209,1.139,0.197,2.052,2.748,3.518c5.093,2.927,2.789,12.019,9.684,11.715
		c0.988-0.229,1.724-0.583,1.724-0.583c3.75-0.532,20.894-8.533,20.894-8.533s6.479-11.878,5.399-17.816
		c-1.08-5.94-7.019-5.94,1.08-16.737c8.099-10.798,5.399-3.24,8.099,8.638c2.7,11.877,3.778,19.976,7.019,26.994
		c3.239,7.018,3.239,7.018,3.239,7.018s1.62-10.797,2.16-18.895c0.54-8.099,5.059-18.897,4.69-21.057
		c-0.163-0.944,0.986-3.129,2.06-4.927c-2.483,6.357-2.707,23.724-2.06,28.143c0.708,4.86,0,11.879,0,11.879
		s3.408-16.737,5.028-24.296c1.619-7.558,9.718-17.816,9.718-17.816s2.159-5.398,3.78-5.398c1.619,0-0.07-2.479-3.85,19.118
		c-3.779,21.595-1.065,12.462-4.106,22.754c-1.648,5.575-0.683,9.418,0.397,13.736l14.094-21.002c0,0,1.653-2.607,5.433-10.166
		c3.778-7.559,11.991-13.614,10.708-10.404c-2.013,5.035-6.298,8.382-9.179,21.056c-2.489,10.954-2.683,15.012-3.121,16.002
		l19.975-33.279l2.583-5.938l3.239-10.258c1.619-3.24,4.861-10.464,5.4,2.493c0.541,12.958-7.302,18.563-5.682,22.881
		c1.619,4.319,1.619,4.319,1.619,4.319s6.937-3.892,8.017-10.371c1.08-6.478,3.884-10.03,5.272-13.586
		c1.622-4.156,1.23-6.453,1.57-7.896c2.156-9.18-0.541-2.159,2.159-9.179c2.699-7.019,7-15.987,6.479-9.178
		c-0.525,6.837-2.861,14.533-2.861,18.852c0,4.32,6.101,12.461,6.101,12.461s-0.04-2.864,1.08-5.397
		c4.884-11.041,7.511-14.681,6.258-23.033c-0.456-3.042-0.525,0.935-1.064-6.083s0.121-1.541,2.82,2.238
		c2.7,3.78,2.807,15.609,2.807,17.229s-1.103,24.226-1.103,28.544c0,0,11.519-1.079,14.396-11.875
		c2.88-10.798,11.518-20.157,12.237-15.837c1.44,8.638-0.629,20.429-1.35,22.589c-0.72,2.159-2.249,8.365-2.249,8.365l11.517-10.08
		c0,0,6.479-5.759,8.639-10.798c2.16-5.038,3.058-17.92,2.341-6.659c-0.718,11.26-0.181,31.134-0.181,31.134
		c-2.16,10.078-0.927,18.15,1.953,14.55c2.879-3.6,1.825-11.311,6.685-10.951l5.76-4.858c2.7-7.56,10.978,0.382,9.358-10.416
		C405.849,352.696,405.573,350.904,405.301,349.737z"/>
</g>
<g>
	<path fill="#F1F1F1" d="M301.256,260.233l0.106-0.092l-0.205-0.393l-5.693-4.841l-2.577,2.458l-6.786,5.656
		c0.237-0.046,0.464-0.099,0.714-0.137C290.765,262.277,296.051,261.111,301.256,260.233z"/>
	<path fill="#F1F1F1" d="M274.192,269.12l-14.669-15.132l-1.179-1.153l-7.421,5.411l-4.665,3.559l0,0l10.9,3.057
		C264.097,267.267,271.124,269.42,274.192,269.12z"/>
</g>
<g>
	<circle fill="#F1F1F1" cx="278.602" cy="221.619" r="10.14"/>
	<g>
		<path fill="#F1F1F1" d="M278.602,239.869c-7.694,0-14.099-5.496-15.517-12.775c-0.193,0.984-0.3,2-0.3,3.042
			c0,8.735,7.082,15.817,15.817,15.817s15.817-7.082,15.817-15.817c0-1.042-0.107-2.058-0.3-3.042
			C292.7,234.373,286.296,239.869,278.602,239.869z"/>
	</g>
	<path fill="#F1F1F1" d="M281.644,193.331c-1.559,0-2.909-0.847-3.65-2.097c-0.741,1.25-2.091,2.097-3.65,2.097
		c-1.193,0-2.268-0.494-3.042-1.286v8.705c1.505,2.134,3.984,3.531,6.794,3.531c2.688,0,5.069-1.281,6.59-3.26v-8.976
		C283.912,192.837,282.837,193.331,281.644,193.331z"/>
	<polygon fill="#F1F1F1" points="277.537,152.846 281.567,165.245 294.603,165.245 284.056,172.721 288.085,185.027 
		277.537,177.317 266.99,184.957 271.019,172.733 260.472,165.245 273.509,165.245 	"/>
	<polygon fill="#F1F1F1" points="264.699,252.847 277.376,264.983 290.68,252.847 	"/>
</g>
</svg>
