<?xml version="1.0" encoding="utf-8"?>
<!-- Generator: Adobe Illustrator 15.0.0, SVG Export Plug-In . SVG Version: 6.00 Build 0)  -->
<!DOCTYPE svg PUBLIC "-//W3C//DTD SVG 1.1//EN" "http://www.w3.org/Graphics/SVG/1.1/DTD/svg11.dtd">
<svg version="1.1" id="Calque_1" xmlns="http://www.w3.org/2000/svg" xmlns:xlink="http://www.w3.org/1999/xlink" x="0px" y="0px"
	 width="307" height="400" viewBox="0 0 307 400" xml:space="preserve">
<g>
	<g>
		<path fill="#F1F1F1" d="M213.552,552.732c-0.104,0.223-3.459,7.327-3.554,7.54l0,0c-0.246,0.493-0.493,0.977-0.734,1.465
			c-2.147,4.165-4.559,7.881-7.602,10.848c-4.668,4.549-10.564,8.245-16.421,11.155c-0.431,0.228-0.858,0.427-1.294,0.64
			c-0.44,0.204-0.872,0.413-1.304,0.612c-10.691,4.947-20.501,7.288-21.164,7.44l-17.729,4.634l7.692-0.611
			c8.052,0,17.179-1.758,25.24-3.298c0.54-0.109,1.062-0.203,1.583-0.308c3.042-0.712,6.246-1.299,9.578-1.792
			c0.54-0.076,1.08-0.161,1.635-0.232c0.55-0.08,1.095-0.155,1.65-0.222c11.994-2.038,12.961-8.844,12.961-8.844
			c0.393-4.218,1.683-7.346,4.649-10.672c1.854-2.19,2.242-3.232,3.427-4.939c0.28-0.412,0.583-0.814,0.891-1.203
			C213.055,564.945,212.216,559.026,213.552,552.732z"/>
		<path fill="#F1F1F1" d="M463.01,629.786c-11.93-16.833-17.18-28.994-21.1-34.26c-3-4.113-20.426-23.046-26.15-29.7
			c3.935,11.299,16.019,28.776,18.298,32.587c2.128,5.336,2.374,10.256,2.73,12.966c2.151,16.757,3.512,25.396,3.512,25.396
			c3.814-18.813,0.545-33.367,0.545-33.367C439.574,599.854,449.237,624.838,463.01,629.786L463.01,629.786z M426.238,540.084
			c-3.188-9.464-7.421-10.639-7.909-10.828c4.862-1.551,10.758,1.108,15.402,3.941l0,0c0.673-1.074-5.058-9.132-5.938-10.149
			c-14.022-15.646-25.397-18.317-25.397-18.317l-5.903,8.795c15.064,17.479,16.122,31.696,16.122,31.696
			c0.568,4.729,1.449,7.616,4.539,11.947c0,0,12.53,16.918,19.653,21.946C429.419,561.566,428.291,549.202,426.238,540.084z
			 M367.416,604.057l-0.004,0.005 M265.64,496.816l-0.01,0.104l35.377,9.015l3.45-5.981l-26.454-8.605
			C273.606,492.987,269.474,494.863,265.64,496.816L265.64,496.816z M322.002,501.024l5.374,5.952l38.363-7.023l-0.076-0.199
			c-4.601-2.72-9.246-5.075-13.933-7.061L322.002,501.024L322.002,501.024z M282.23,489.85l26.92,8.246c0,0,6.838-0.825,8.937,0.701
			l29.469-7.771c-9.948-3.74-19.876-1.412-30.061-1.839l-1.048,3.706l-2.056-0.038l-1.134-3.232c-0.801,0-1.577,0.028-2.369,0.048
			l-0.47,4.037l-2.312,0.332l-1.478-5.146C297.97,489.542,289.662,487.386,282.23,489.85L282.23,489.85z M289.084,546.501
			c-5.028-0.232-10.17,4.677-17.648,11.354c5.602-11.449,21.866-21.762,28.525-23.401c-2.812-4.682,0.696-14.032,0.696-14.032
			c-36.6,19.529-37.069-19.928-37.069-19.928s-9.706,5.544-14.501,9.715c-4.787,4.161-8.413,9.042,3.749,22.605
			c12.161,13.572,12.038,16.838,1.507,10.644c-2.436-1.402-12.62-12.862-6.075,6.445c6.554,19.278,20.818,18.122,26.203,18.004
			c5.365-0.119,11.335-9.587,15.43-13.691C293.994,550.127,291.539,548.145,289.084,546.501L289.084,546.501z M380.188,545.923
			c-10.062,5.255-21.524,11.924-13.573,3.625c7.957-8.307,18.251-17.198,18.829-24.098c-0.431-6.692,2.337-8.085-17.317-22.696
			c-0.568-0.421-8.871,43.496-36.595,20.245c0,0,2.109,7.247,1.289,9.701c-0.824,2.455-1.171,3.62,4.095,7.024
			c5.255,3.383,13.559,11.695,18.236,17.069c4.687,5.379-8.886-5.616-13.09-7.725c-4.213-2.104-5.507-1.517-3.289,5.27
			c0.763,2.313,2.375,4.635,4.517,6.673c1.659,1.161,3.218,2.322,4.654,3.479c3.506,2,7.61,3.204,11.71,2.934
			C368.948,566.851,373.284,566.965,380.188,545.923L380.188,545.923z M186.871,678.996c-1.659,7.635-9.999,12.274-9.999,12.274
			c-2.19,0.181-2.882,4.734,0,6.143c10.089,2.721,14.757-10.962,14.757-10.962C191.904,681.271,186.871,678.996,186.871,678.996
			L186.871,678.996z M207.188,556.557c0.076-0.161,0.142-0.322,0.218-0.483c0.157-0.341,0.313-0.672,0.469-1.019
			c0.057-0.143,0.123-0.293,0.189-0.44c0.213-0.488,0.431-0.976,0.64-1.47c5.204-12.103,10.449-25.5,20.705-36.093l-6-11.117
			c0,0-10.914,18.435-25.34,32.804c-0.157,0.151-0.299,0.289-0.441,0.44c-0.185,0.186-0.37,0.365-0.559,0.546
			c-0.152,0.146-0.303,0.293-0.464,0.436c-0.175,0.18-0.36,0.359-0.55,0.53c-0.157,0.143-0.318,0.303-0.479,0.445
			c-5.004,4.688-10.374,8.759-15.8,11.331c0,0,1.085,0.242,2.915,0.242c3.493,0,9.696-0.929,16.265-6.284
			c0.266-0.208,0.536-0.427,0.801-0.669c0.095-0.074,0.189-0.165,0.279-0.241c0.242-0.223,0.498-0.45,0.763-0.688
			c0.09-0.099,0.18-0.165,0.28-0.25c0.232-0.237,0.469-0.493,0.725-0.74c0.806-0.824,1.616-1.691,2.422-2.663
			c0,0-0.806,1.052-2.251,2.904c-0.213,0.267-0.431,0.546-0.673,0.85c-0.066,0.095-0.151,0.188-0.223,0.274
			c-0.223,0.285-0.45,0.569-0.683,0.872c-0.076,0.086-0.147,0.176-0.218,0.256c-0.227,0.294-0.464,0.583-0.71,0.896
			c-2.142,2.678-4.933,6.095-8.194,9.966c-0.422,0.499-0.854,1.006-1.289,1.513c-0.398,0.474-0.801,0.952-1.224,1.436
			c-0.891,1.043-1.814,2.109-2.763,3.194c-0.312,0.351-0.625,0.711-0.943,1.066s-0.63,0.726-0.943,1.086
			c-2.436,2.753-5.009,5.602-7.697,8.482c-0.317,0.336-0.648,0.678-0.962,1.019c-0.317,0.337-0.64,0.668-0.952,1.015
			c-4.469,4.72-9.891,8.298-14.672,12.72c0,0,9.464-2.204,19.9-6.938c0.435-0.185,0.872-0.394,1.312-0.602
			c0.432-0.199,0.868-0.408,1.298-0.625c5.853-2.854,11.777-6.489,16.359-10.957c3.124-3.048,5.574-7.042,7.782-11.555
			c0.237-0.493,0.005,0.01,0.237-0.493L207.188,556.557z M190.316,595.641L190.316,595.641c-0.057,0-7.123,0.934-11.625,1.792
			c-3.758,0.725-7.862,1.521-12.066,2.203c-1.839,0.294-3.687,0.56-5.549,0.786c-3.289,0.394-6.563,0.65-9.672,0.65
			c-0.398,0-0.777-0.006-1.157-0.011c1.692,1.085,3.432,1.82,5.228,2.279c0.707,0.181,1.417,0.313,2.128,0.413
			c0.82,0.119,1.659,0.194,2.498,0.213c0.242,0,0.459,0.019,0.692,0.019c7.54,0,15.653-3.316,23.671-5.26
			c-0.663,0.161-27.894,9.517-32.95,28.833c0,0,14.426-16.89,28.003-21.231c0,0-4.644,13.288-18.909,22.511
			c0,0,19.236-2,30.79-28.823c0,0,1.843-3.631,3.029-4.948C193.032,595.143,191.562,595.475,190.316,595.641z"/>
		<path fill="#F1F1F1" d="M406.941,600.938c3.407-9.592-0.365-25.898-0.365-25.898l0,0c-0.721-3.64-1.308-5.93-1.308-5.93
			c-11.844,2.977-18.232,21.322-18.232,21.322c1.105,3.07,2.36,5.715,3.688,7.98C394.273,605.275,403.643,610.251,406.941,600.938z
			 M410.191,579.115c2.479,9.298,2.267,19.924-2.474,28.069c0.555,8.397,7.085,13.924,7.085,13.924
			c2.65,3.374,7.066,7.598,14.223,11.237c0,0,3.436-16.095-0.237-27.758C424.575,591.968,409.637,577.002,410.191,579.115z
			 M284.108,521.113c10.881,2.46,15.321-8.877,15.321-8.877l-30.638-9.482C267.512,512,273.232,518.663,284.108,521.113z
			 M280.137,508.607l9.373,2.843c-1.672,2.891-3.534,4.474-6.866,3.308C279.407,513.63,280.137,508.607,280.137,508.607
			L280.137,508.607z M346.797,523.691c11.572,0.119,12.857-17.188,12.857-17.188l-28.771,4.919
			C331.708,514.569,335.214,523.573,346.797,523.691L346.797,523.691z M348.759,510.839c0.213,1.806-0.351,4.479-2.952,5.351
			c-5.952,1.271-7.44-3.582-7.44-3.582L348.759,510.839L348.759,510.839z M390.179,521.464c0,0-0.203,14.621-2.905,21.616
			c-2.716,6.989,9.744,13.302,20.27,17.686C407.543,560.766,409.311,537.984,390.179,521.464L390.179,521.464z M387.809,554.358
			c0,0-8.946,17.027-2.895,31.325c0,0,5.525-18.862,19.828-21.061C404.742,564.623,391.23,557.259,387.809,554.358L387.809,554.358z
			 M312.88,557.249c1.62,0.91,2.823,0.711,3.962-0.042l0.07-0.475l0.55,0.023c1.294-1.043,2.588-2.63,4.417-3.952
			c3.749-2.682,7.251,0.237,12.047-1.394c4.796-1.64-0.232-7.715-3.043-13.104c-2.042-3.919-4.223-1.246-6.914,1.389
			c1.525-1.678,3.042-3.952,3.758-6.304c1.289-4.208-7.013-11.221-3.378-20.112c3.615-8.891-6.56-12.393-10.526-12.738
			c-3.98-0.355-6.915,1.398-9.364,7.364c-2.45,5.962,3.037,12.626,3.037,12.626c0.119,1.525,0.825,1.175-1.867,5.383
			c-2.691,4.209-3.27,11.459-0.933,16.132c-3.513-4.209-6.086-3.739-9.593-1.744c-3.506,1.981-2.449,8.768,0,12.621
			c2.456,3.856,6.08-0.46,10.525-1.043C310.068,551.287,309.15,555.149,312.88,557.249z M216.42,563.846
			c0.028,0.332,0.066,0.674,0.09,1.014c0.057,0.579,0.09,1.139,0.161,1.721c0,0,23.615-9.354,22.212-22.449
			c-1.398-13.108-4.451-24.562-4.451-24.562C233.608,520.459,214.709,537.35,216.42,563.846L216.42,563.846z M217.315,569.485
			c-0.46,0.218-0.891,0.407-1.275,0.568c-0.54,0.256-0.99,0.445-1.308,0.578c-0.365,0.161-0.578,0.257-0.578,0.257
			c-1.142,0.615-2.123,1.374-2.938,2.236c-2.72,2.857-3.672,6.781-3.089,9.98c0.587,3.156,2.672,5.606,6.033,5.606
			c2.189,0,4.928-1.037,8.151-3.621c0.455-0.364,0.891-0.738,1.317-1.123c0.36-0.331,0.701-0.663,1.047-0.995
			c0.336-0.336,0.65-0.683,0.972-1.028c8.71-9.555,10.469-23.288,10.469-23.288C233.741,561.779,222.798,567.002,217.315,569.485
			L217.315,569.485z M228.959,591.812c0.232-0.497,0.45-1.01,0.668-1.53c0.218-0.503,0.422-1.024,0.616-1.551
			c1.402-3.701,2.402-7.818,2.801-12.439c0,0-2.166,4.099-5.701,8.16c-0.303,0.352-0.635,0.711-0.958,1.062
			c-0.327,0.341-0.659,0.691-1.009,1.027c-3.205,3.151-7.194,5.801-11.569,5.801c-2.113,0-4.332-0.63-6.578-2.123
			c-0.445-0.298-0.886-0.611-1.327-0.976l-0.01,0.009c-0.047,0.038-0.702,0.583-1.602,1.787c-0.299,0.388-0.625,0.872-0.972,1.421
			c-1.175,1.925-2.521,4.815-3.459,8.892c-0.114,0.549-0.228,1.146-0.336,1.743c-0.124,0.579-0.204,1.181-0.298,1.811
			c-0.47,3.394-0.645,7.45-0.304,12.236c0,0,0.517-0.151,1.422-0.464c2.227-0.972,4.417-1.962,6.416-2.891
			c0.446-0.209,0.882-0.418,1.299-0.617c0.185-0.09,0.365-0.175,0.545-0.274c0.242-0.123,0.474-0.256,0.725-0.398
			C215.912,608.688,224.068,602.199,228.959,591.812L228.959,591.812z M216.775,625.662c0.18-0.53,0.328-1.065,0.465-1.592
			c0.166-0.578,0.303-1.143,0.412-1.697c1.345-6.482,0.057-11.516,0.057-11.516c-0.854,0.905-3.422,2.337-6.502,3.867
			c-0.421,0.209-0.858,0.417-1.303,0.631c0,0,0,0.005-0.005,0.009c-0.422,0.204-0.848,0.412-1.284,0.611
			c-2.512,1.186-5.142,2.355-7.35,3.322c-3.1,1.355-5.374,2.289-5.374,2.289c-9.123,8.242-0.773,24.084-0.773,24.084
			C208.595,640.657,214.406,632.705,216.775,625.662L216.775,625.662z M194.246,648.941c-3.991-5.138-5.09-14.027-5.09-14.027
			c-0.042,0.033-0.095,0.085-0.137,0.123c-22.601,20.084-4.867,27.989-4.867,27.989c0.645-7.555,9.393-13.597,10.056-14.053
			C194.227,648.955,194.246,648.941,194.246,648.941L194.246,648.941z M183.639,665.902c-6.407-2.1-8.17-7.957-8.17-7.957
			c-9.905,11.577,0.621,29.818,0.881,30.529C190.293,679.783,183.639,665.902,183.639,665.902L183.639,665.902z M279.639,649.287
			c0.072-15.264,0.669-25.852,2.772-34.96l0,0c3.745-16.132,20.346-34.842,28.075-39.287l0.691-14.967
			c-5.379-2.218-27.852,12.161-29.828,27.359c0,0-3.378-14.972,21.648-31.572c0.688-0.459-27.884,8.555-35.524,35.312
			c-0.569,3.725-1.109,6.72-1.678,9.227c-0.081,0.962-0.133,1.947-0.166,2.934c-0.336,12.208-0.308,23.847-0.394,34.443
			c0.645,16.048-5.848,44.747-5.848,44.747c-2.393,10.762-14.639,26.648-19.364,31.354c0,0,25.558-15.312,32.51-32.354
			C272.535,681.522,278.801,666.784,279.639,649.287z"/>
		<path fill="#F1F1F1" d="M428.248,636.88c-7.37-3.474-14.672-11.436-17.284-14.724c-1.426,1.687-0.71,15.757-1.672,7.554
			c1.473,9.402,2.057,16.567,15.084,28.07C430.102,652.485,428.248,636.88,428.248,636.88z"/>
		<path fill="#F1F1F1" d="M432.043,640.62c0,0,1.3,14.923-5.051,20.221c0.597-0.56,5.876,7.995,21.98,8.706
			C448.858,668.95,448.044,654.841,432.043,640.62z"/>
		<path fill="#F1F1F1" d="M451.441,672.959c-5.995,1.052-16.45-2.475-16.45-2.475s0.929,13.397,18.104,17.867
			C453.095,688.352,454.033,681.641,451.441,672.959z"/>
		<path fill="#F1F1F1" d="M454.02,701.763c0,0-3.218,0.171-7.275-0.479c0,0-3.416,3.881-1.179,32.345c0,0,1.768-15.876,5.648-22.227
			c0,0-1.058,9.108,12.81,23.392c0,0-5.758-8.226-6.819-20.686c0,0,9.056,5.763,14.345,14.108c-0.814-1.223-1.341-7.17-13.359-19.16
			C453.564,705.171,454.247,703.649,454.02,701.763z"/>
		<path fill="#F1F1F1" d="M179.696,700.645c2.682,10.578-14.966,36.335-14.966,36.335c9.44-5.738,21.468-23.994,21.439-24.383
			c1.403,12.122-2.01,19.8-2.01,19.8c13.943-26.548,6.446-39.989,6.446-39.989C185.573,701.413,179.929,700.199,179.696,700.645z"/>
		<path fill="#F1F1F1" d="M365.721,681.564c-0.138-0.572-0.267-1.146-0.403-1.733c-0.133-0.589-0.271-1.176-0.394-1.783
			c-0.814-3.818-1.568-7.961-2.137-12.387c-0.935-7.042-1.08-14.682-0.858-22.265c0.028-0.814,0.058-1.64,0.08-2.465
			c0.038-0.814,0.076-1.62,0.104-2.436c0.769-15.705,2.759-30.491,2.318-38.211c-0.707-12.232-4.929-27.506-31.748-42.443
			c0,0,18.113,14.222,17.407,36.562c0,0-7.688-33.955-31.122-34.804l-2.143,15.127l-0.019,0.152c0,0,0.019,0.014,0.062,0.019
			c0.235,0.066,1.397,0.427,3.142,1.465c0.186,0.099,0.346,0.213,0.53,0.317c7.603,4.786,24.596,21.449,30.009,76.508
			c0.009,0.076,0.019,0.137,0.038,0.199c0.071,0.631,0.156,1.26,0.26,1.886c0.1,0.616,0.214,1.237,0.322,1.849
			c1.777,9.535,5.417,18.795,9.299,26.624c0.236,0.47,0.474,0.934,0.705,1.389c0.237,0.459,0.47,0.914,0.692,1.36
			c4.748,9.027,9.535,15.79,11.502,18.207C373.369,704.701,369.128,695.83,365.721,681.564z"/>
		<path fill="#F1F1F1" d="M384.804,627.605c2.322,5.825,3.617,9.588,3.617,9.588C387.373,633.69,386.146,630.496,384.804,627.605z"
			/>
		<path fill="#F1F1F1" d="M327.945,623.639c0-0.436-0.011-0.924-0.028-1.482C327.926,622.554,327.917,623.052,327.945,623.639z"/>
		<path fill="#F1F1F1" d="M242.84,604.518c0,0-0.417,0.776-1.119,2.179c-0.152,0.304-0.308,0.636-0.502,1.015
			c0.194-0.341,0.35-0.659,0.521-0.985C242.167,605.929,242.551,605.19,242.84,604.518z"/>
		<path fill="#F1F1F1" d="M369.427,595.807c5.103,6.346,6.582,11.549,9.976,19.065c0.232,0.492,0.444,0.98,0.663,1.469
			c0.223,0.507,0.455,1.01,0.669,1.512c1.587,3.606,2.951,6.929,4.069,9.753c1.342,2.891,2.569,6.085,3.617,9.588
			c0,0-1.295-3.763-3.617-9.588c-1.506-3.288-3.151-6.179-4.81-8.71c-0.279-0.437-0.563-0.873-0.848-1.275
			c-0.275-0.422-0.56-0.811-0.844-1.208c0,0-5.645-9.696-9.156-13.099c0.114,1.857,0.507,5.397-0.977,27.074
			c-0.043,0.555,0.02,0.887,0.02,0.887c0.161,0.265,0.312,0.53,0.459,0.791c0.257,0.459,0.521,0.909,0.778,1.365
			c4.843,8.582,8.567,16.885,11.416,24.79c0.189,0.511,0.375,1.042,0.554,1.544c0.181,0.521,0.352,1.048,0.531,1.568
			c12.891,38.279,5.384,66.121,5.384,66.121c22.895-23.341,12.64-70.029,12.64-70.029c26.927,22.5,34.747,54.096,35.955,54.096
			h0.014c-1.648-32.689-17.164-50.333-34.799-73.375c-0.023-0.02-0.043-0.048-0.061-0.071c-0.271-0.375-0.57-0.763-0.849-1.143
			c-0.295-0.383-0.574-0.771-0.858-1.17c-5.028-6.971-9.905-15.492-14.283-24.013c-0.256-0.479-0.488-0.957-0.729-1.436
			c-0.247-0.461-0.483-0.939-0.716-1.407c0,0-15.274-27.696-23.132-35.033C365.261,581.845,367.326,586.901,369.427,595.807z"/>
		<path fill="#F1F1F1" d="M367.369,604.303"/>
		<path fill="#F1F1F1" d="M253.19,671.386c-5.915,27.496-13.166,34.724-13.166,34.724c-0.45-18.602,2.01-33.341,5.261-44.524
			c0,0,4.512-16.795,12.246-22.596C256.92,650.823,255.896,658.6,253.19,671.386z"/>
		<path fill="#F1F1F1" d="M454.849,698.706c1.185-1.18,2.132-6.942-1.047-7.056c-3.176-0.129-10.825-4.711-10.825-4.711
			c-3.057,0.355,1.294,9.416,2.237,10.938C446.151,699.408,453.684,699.881,454.849,698.706z"/>
		<path fill="#F1F1F1" d="M348.147,660.836c-0.053-0.615-0.133-1.274-0.213-1.962c-0.076-0.606-0.166-1.232-0.247-1.886
			c-2.733-20.07-12.321-62.452-24.643-74.12l0.701,20.227c0,0-5.654-9.402-8.819-23.979c0,0-8.867,23.715-7.597,36.155
			c-0.194-1.716-2.313-14.764-1.664-22.511c0,0-3.203,21.86-8.085,26.571c0,0,3.721-13.231,1.237-23.753
			c0,0-7.772,20.929-12.948,24.691l-1.852,42.372c0.032,7.493-10.555,51.021-13.199,55.937c0,0,9.042-14.574,12.55-24.578
			c0,0,4.843-13.919,4.942-14.747c0.109-0.82,11.653,12.482,11.545,26.406c-0.1,13.914-0.408,16.805-1.332,20.415
			c-0.935,3.602,8.118-16.401,4.521-42.95c-0.483-1.525-1.024-3.099-1.64-4.743c-9.418-24.947-7.181-35.061-3.825-44.472
			c-0.635,1.806-2.653,23.752,5.053,34.339c0,0,0.763-14.35,7.061-18.586c0,0-2.288-4.938-2.347-12.46
			c0.076,1.924,2.991,8.469,7.579,12.933c0,0-14.61,7.29-3.01,30.454c1.849,3.706,3.157,6.976,4.028,9.886
			c0.147,0.512,0.29,0.995,0.417,1.488c0.133,0.531,0.265,1.042,0.365,1.535c0.161,0.734,0.284,1.432,0.378,2.123
			c0.513,3.696-0.298,16.606,1.366,22.326c0.242-9.378,5.568-19.813,5.942-24.373c0.194-2.427-0.208-3.062-0.53-6.351
			c-0.043-0.588-0.109-1.156-0.171-1.754c-0.057-0.577-0.113-1.146-0.176-1.733c-0.814-7.73-1.673-16.138,0.674-21.142
			c3.762-7.986,4.004-10.81,3.535-23.748c-0.427-11.695,0.209-11.08,0.199-15.208c-0.028-0.587-0.02-1.085-0.028-1.482
			c0.018,0.559-4.603,1.047-4.603,1.482c0.125,2.531,1.686,6.986,1.686,14.98v34.084v2.065v2.067v34.765
			c0,0.152,4.936,0.295,5.088,0.441c0.721-9.155,4.53-26.842,6.303-40.088c0.104-0.863,1.371-1.706,1.495-2.53
			c0.132-0.872,0.821-1.73,0.949-2.56c0.184-1.171,0.662-2.279,0.848-3.317c0,0,0.168,0.958,0.234,2.583
			c0.02,0.592,0.133,1.266,0.167,2.033c0.018,0.625,0.085,1.299,0.123,2.023c0.455,8.563,1.556,23.738,4.102,35.32
			c0.142,0.636,0.304,1.251,0.446,1.853c0.147,0.622,0.308,1.21,0.459,1.812c0.29,1.075,0.593,2.09,0.915,3.052
			c0,0,0.066-1.777,0.181-4.669c0.038-0.785,0.065-1.658,0.107-2.602c0.038-0.81,0.067-1.682,0.105-2.577
			c0.483-11.739,1.312-30.687,1.914-38.127C348.39,663.301,348.294,662.136,348.147,660.836z"/>
		<path fill="#F1F1F1" d="M245.209,560.793c1.886,8.152-1.981,28.038-3.071,28.44c5.649-1.417,14.345-13.882,14.345-13.882
			c-2.521,3.659-7.265,19.554-6.867,19.554c0.009,0,0.023-0.009,0.038-0.038c0.71-0.938,16.937-23.751,16.937-23.751l-1.588,13.406
			c-2.525,18.81-4.051,22.81-8.061,27.757c-2.71,2.152-4.985,4.19-6.914,6.118c-0.336,0.332-0.678,0.669-0.995,1.01
			c-0.341,0.351-0.678,0.706-0.991,1.052c-9.549,10.455-8.019,16.734-8.019,16.734c3.194-5.768,7.232-10.08,10.672-13.066
			c0.37-0.322,0.734-0.626,1.09-0.919c0.375-0.309,0.744-0.588,1.09-0.862c3.057-2.37,5.251-3.488,5.251-3.488v6.768
			c-0.531,0.578-1.057,1.166-1.583,1.748c-0.322,0.352-0.635,0.707-0.947,1.062c-0.333,0.355-0.659,0.725-0.967,1.085
			c-5.957,6.749-10.976,13.308-14.123,21.781c-0.194,0.502-0.365,1.038-0.54,1.554c-0.18,0.526-0.346,1.053-0.512,1.588
			c-0.403,1.342-0.763,2.725-1.076,4.16c-4.948,38.81-14.146,56.686-14.146,56.686c7.493-33.81-0.445-31.052,1.673-57.154
			c0.455-5.592,1.498-11.246,2.844-16.687c0.137-0.555,0.284-1.113,0.421-1.663c0.147-0.563,0.294-1.123,0.446-1.668
			c3.298-11.999,7.886-22.577,10.71-28.529c0.242-0.531,0.469-1.015,0.697-1.469c0.066-0.133,0.138-0.275,0.195-0.408
			c0.194-0.341,0.35-0.659,0.521-0.985c0.426-0.797,0.81-1.535,1.1-2.208c0,0-0.417,0.776-1.119,2.179
			c-0.152,0.304-0.308,0.636-0.502,1.015c-0.076,0.133-0.138,0.266-0.209,0.379c-0.25,0.441-0.516,0.891-0.786,1.365
			c-3.568,6.176-9.208,14.899-13.322,25.378c-0.208,0.502-0.398,1-0.588,1.512c-0.189,0.493-0.374,1.01-0.549,1.521
			c-2.421,6.857-4.095,14.393-4.095,22.382c-0.228,48.216-9.402,51.505-9.402,51.505c2.355-22.813-4.701-17.876-8.459-38.103
			c-3.773-20.217,13.141-26.923,13.165-28.927c0.057-4.844,0.839-9.896,2.066-14.929c0.137-0.555,0.274-1.104,0.421-1.663
			c0.147-0.555,0.294-1.104,0.455-1.654c3.08-10.976,8.014-21.553,11.871-29.146c0.256-0.487,0.498-0.976,0.74-1.445
			c0.247-0.469,0.483-0.943,0.725-1.407c0.598-1.138,1.157-2.189,1.654-3.133C234.907,591.347,246.134,564.58,245.209,560.793z"/>
		<path fill="#F1F1F1" d="M379.388,664.462c-2.17-7.359-6.019-14.497-10.654-23.065c-0.099,6.397,3,32.586,3,32.586
			c3.901,8,8.075,25.075,3.28,59.646C375.014,733.629,390.459,694.337,379.388,664.462z"/>
		<path fill="#F1F1F1" d="M414.983,584.238"/>
		<path fill="#F1F1F1" d="M422.897,373.609c-0.251,0.512-0.369,0.967-0.418,1.383C422.618,374.552,422.76,374.092,422.897,373.609z"
			/>
	</g>
	<path fill="#F1F1F1" d="M241.475,492.721c1.677,0,3.043-1.279,3.043-2.861c0-1.574-1.366-2.854-3.043-2.854
		c-1.678,0-3.042,1.279-3.042,2.854C238.433,491.441,239.797,492.721,241.475,492.721z"/>
	<path fill="#F1F1F1" d="M266.218,475.415c1.688,0,3.047-1.29,3.047-2.872c0-1.579-1.36-2.868-3.047-2.868
		c-1.673,0-3.042,1.289-3.042,2.868C263.176,474.125,264.545,475.415,266.218,475.415z"/>
	<path fill="#F1F1F1" d="M385.014,482.049c-1.692,0-3.053,1.279-3.053,2.862c0,1.584,1.36,2.867,3.053,2.867
		c1.672,0,3.042-1.283,3.042-2.867C388.056,483.328,386.686,482.049,385.014,482.049z"/>
	<path fill="#F1F1F1" d="M357.787,467.201c-1.678,0-3.047,1.284-3.047,2.867c0,1.573,1.369,2.862,3.047,2.862
		c1.683,0,3.043-1.289,3.043-2.862C360.83,468.485,359.47,467.201,357.787,467.201z"/>
	<path fill="#F1F1F1" d="M315.756,375.4c-1.886,0-3.397,1.118-3.397,2.507s1.512,2.517,3.397,2.517c1.873,0,3.394-1.128,3.394-2.517
		S317.629,375.4,315.756,375.4z"/>
	<path fill="#F1F1F1" d="M298.752,475.234c3.98,2.009,8.791,3.194,13.971,3.194c5.47,0,10.525-1.332,14.64-3.563
		c0.929-0.513,1.819-1.054,2.653-1.649c4.635-3.337,7.531-7.981,7.531-13.128c0-5.582-3.408-10.587-8.744-13.952
		c-0.877-0.549-1.806-1.052-2.782-1.517c-3.848-1.811-8.402-2.882-13.298-2.882c-4.848,0-9.359,1.044-13.18,2.83
		c-0.98,0.46-1.924,0.952-2.81,1.503c-5.403,3.373-8.843,8.397-8.843,14.018c0,5.364,3.17,10.189,8.165,13.554
		C296.903,474.21,297.795,474.751,298.752,475.234z M298.695,458.979l-1.459-4.228c0,0,2.653,0.555,3.785,0.777
		c1.138,0.228,1.702-0.266,1.702-0.266l1.185-2.493c0,0,3.193,2.834,5.317,5.181c2.54,2.63,0.46-1.513,0.46-1.513l-2.834-8.397
		c0,0,1.17,0.479,2.341,0.777c1.038,0.266,1.995-1.715,1.995-1.715l1.734-3.067c0,0,1.678,3.067,2.146,4.005
		c0.697,1.423,1.863,0.91,1.863,0.91l2.288-0.91l-3.127,9.706c-1.043,2.834,1.236,0.171,1.236,0.171l4.683-5.347
		c0,0,0.498,1.317,0.853,2.219c0.418,1.288,2.118,0.834,2.118,0.834l3.38-0.825c0,0-0.83,1.45-1.355,3.194
		c-0.531,1.745,1.606,3.298,1.606,3.298s-7.645,3.006-9.729,4.247c-1.355,0.815,2.445,5.317,2.445,5.317s-4.521-0.578-6.341-1.023
		c-1.811-0.445-1.649,0.61-1.649,0.61l0.455,4.716l-2.189,0.422c0,0,0.631-4.166,0.593-5.218c-0.053-1.057-1.65-0.806-1.65-0.806
		l-6.942,1.488c0,0,2.787-3.754,3.432-4.691c0.64-0.958-0.417-1.3-0.417-1.3l-9.787-3.738c0,0,0.802-0.364,1.541-0.687
		C299.111,460.315,298.695,458.979,298.695,458.979z"/>
	<path fill="#F1F1F1" d="M312.723,438.715c5.772,0,11.146,1.365,15.587,3.682l3.375-3.256c-5.423-2.691-11.948-4.273-18.962-4.273
		c-7.019,0-13.535,1.577-18.961,4.269l3.432,3.219C301.628,440.06,306.974,438.715,312.723,438.715z"/>
	<path fill="#F1F1F1" d="M284.876,460.088c0-6.437,3.743-12.203,9.62-16.118l-3.512-3.303c-7.54,4.636-12.354,11.62-12.354,19.421
		c0,7.588,4.578,14.393,11.776,19.023l3.455-3.347C288.355,471.85,284.876,466.277,284.876,460.088z"/>
	<path fill="#F1F1F1" d="M340.561,460.088c0,5.947-3.189,11.336-8.331,15.218l3.53,3.312c6.771-4.607,11.056-11.193,11.056-18.53
		c0-7.801-4.814-14.785-12.364-19.431l-3.445,3.351C336.845,447.923,340.561,453.667,340.561,460.088z"/>
	<path fill="#F1F1F1" d="M312.723,481.442c-6.057,0-11.648-1.497-16.227-4.028l-3.369,3.274c5.545,2.896,12.293,4.611,19.596,4.611
		c7.635,0,14.678-1.896,20.369-5.048l-3.45-3.246C324.95,479.788,319.088,481.442,312.723,481.442z"/>
	<path fill="#F1F1F1" d="M274.597,460.088c0-2.057,0.289-4.065,0.815-6c-25.587,10.692-53.708,36.444-53.708,36.444
		s9.634,16.895,12.738,22.436c6.881-7.773,25.207-24.36,51.249-32.279C278.843,475.396,274.597,468.116,274.597,460.088z
		 M241.475,495.204c-3.042,0-5.531-2.397-5.531-5.345c0-2.938,2.488-5.337,5.531-5.337c3.038,0,5.526,2.398,5.526,5.337
		C247.001,492.807,244.513,495.204,241.475,495.204z M266.218,477.878c-3.042,0-5.525-2.397-5.525-5.335
		c0-2.948,2.483-5.342,5.525-5.342c3.047,0,5.526,2.394,5.526,5.342C271.744,475.48,269.265,477.878,266.218,477.878z"/>
	<path fill="#F1F1F1" d="M348.75,450.609c1.336,2.973,2.09,6.151,2.09,9.479c0,7.535-3.764,14.402-9.905,19.592
		c31.799,9.444,50.088,30.468,50.088,30.468s9.355-14.274,16.492-22.753C393.615,470.812,365.663,455.624,348.75,450.609z
		 M357.787,475.415c-3.047,0-5.521-2.408-5.521-5.347s2.474-5.336,5.521-5.336c3.043,0,5.525,2.397,5.525,5.336
		S360.83,475.415,357.787,475.415z M385.014,490.247c-3.043,0-5.531-2.388-5.531-5.336c0-2.947,2.488-5.336,5.531-5.336
		c3.042,0,5.516,2.389,5.516,5.336C390.529,487.859,388.056,490.247,385.014,490.247z"/>
	<g>
		<path fill="#F1F1F1" d="M140.234,194.066c-8.995-0.685-20.942-4.855-26.852-8.334c-5.317-3.125-8.242-4.843-17.185-5.841
			c-8.715-0.966-45.338-12.974-49.325-14.289c-2.573,0.493-20.373,3.938-26.903,5.59c-1.289,0.322-1.474,6.511-0.498,13.364
			c8.076-7.608,21.568-7.608,26.236-7.608c0.996,0,1.938,0.014,2.811,0.033c4.701,0.092,10.393,1.727,16.99,3.611
			c4.995,1.429,10.653,3.047,16.369,4.069c3.327,0.599,5.834,0.959,8.052,1.279c6.317,0.908,9.501,1.368,19.06,5.645
			c11.9,5.324,36.671,8.252,42.699,8.252c0.294,0,0.521-0.011,0.701-0.021c2.228-0.178,4.621-2.379,5.739-3.814
			c-1.194-0.103-2.914-0.311-5.047-0.571C149.404,194.971,144.826,194.407,140.234,194.066z"/>
	</g>
	<g>
		<path fill="#F1F1F1" d="M216.282,384.821c-3.688-2.303-24.619-1.602-39.79-4.606c-15.16-2.995-14.663-5.156-37.33-17.326
			c-22.667-12.172-36.169-26.665-55.661-43.334c-19.506-16.663-34.339-49.163-46.827-69.992
			c-12.516-20.833-18.34-28.837-21.008-53.331c-2.043-18.738,1.72-36.463,3.383-43.777c0.076-0.031,0.118-0.052,0.118-0.052
			c0.005-0.213,0.043-0.507,0.095-0.863c0.379-1.67,0.602-2.611,0.498-2.611c1.289-5.836,4.606-16.933,9.199-23.862
			c5.876-8.869,6.62-15.127,9.506-21.75c2.867-6.623,14.995-18.371,23.497-25.499c8.492-7.12,13.615-12.5,13.615-12.5
			c-4.625,1.005-8.487,3.625-17.369,8.128c-8.876,4.5-15.497,9.252-21.127,14.375c-5.625,5.125-6.744,6.498-10.132,8.626
			c-0.867-3-0.616-3.375,2.379-15.249c3.004-11.871,15.378-25.252,15.378-25.252c-0.038-0.009-0.081-0.016-0.128-0.016
			c-2.36,0-11.616,9.248-17.497,15.018c-5.995,5.875-10.128,17.246-10.502,25.125c-0.37,7.876-4.573,22.371-6.075,26.991
			c-0.1,0.327-0.199,0.611-0.303,0.879c0.076-1.266,0.132-2.045,0.132-2.045c0.668-77.496,23.625-69.702,33.748-79.579
			c2.71-3.775,2.976-4.426,2.838-4.426c-0.076,0-0.256,0.177-0.256,0.177C33.438,40.72,22.149,52.056,21.154,52.056
			c-0.128,0-0.076-0.199,0.175-0.649c2.166-3.833,7.801-9.333,11.502-16.833C-7.389,56.34,2.828,139.336,4.032,148.153l-0.028,0.125
			c1,3.881,0.834,17.122,1.322,26.625c0.507,9.495-1.322,25.487-1.322,34.325c0,8.831,5.335,16.665,12.497,33.83
			c7.165,17.165,15.496,28.831,21.828,40.996c6.341,12.167,18.507,28.333,29.999,44.002c11.507,15.663,33.335,30.996,51.5,43.998
			c18.169,12.994,46.333,25.672,46.333,25.672c19.999,8.657,33.733,4.924,50.287,9.473c16.729,4.606,43.368,15.611,43.368,15.611
			c-4.824-3.83-18.094-13.142-28.932-20.805C220.06,394.338,223.249,389.158,216.282,384.821z"/>
	</g>
	<polygon fill="#F1F1F1" points="186,259 188.34,259 186,259.518 	"/>
	<path fill="#F1F1F1" d="M187.132,259.486c0,0.012,0,0.021,0,0.031C187.132,259.518,187.132,259.505,187.132,259.486"/>
	<g>
		<path fill="#F1F1F1" d="M337.233,283.44c0,1.507-0.583,2.519-1.274,3.659c-0.266,0.436-0.546,0.929-0.867,1.512
			c1.341-2.09,2.279-3.066,2.175-4.877C337.262,283.649,337.248,283.54,337.233,283.44z"/>
		<path fill="#F1F1F1" d="M337.233,283.44c-0.274-3.329-2.469-13.744-4.668-19.409c-2.261-5.829-3.929-7.666-3.583-12.663
			c0.328-5,1.402-6.667-0.057-9.5c-1.417-2.775-3.682-10.345-5.028-10.345c-0.028,0-0.057,0.002-0.085,0.007
			c-1.332,0.336-2.336,10.505-1.332,18.167c0.996,7.664,0.996,13.99,3.492,22.324c2.503,8.338,2.337,15.009,1.83,25.174
			c0.161,6.298,0.385,7.614,0.716,9.782c0,0,1.976-4.455,3.653-12.294c1.015-2.874,2.066-4.71,2.92-6.073
			c0.321-0.583,0.602-1.076,0.867-1.512C336.65,285.959,337.233,284.947,337.233,283.44z"/>
	</g>
	<g>
		<path fill="#F1F1F1" d="M342.062,304.2c-0.573,6.497-2.246,15.329-1.09,17.492c0.384,0.711,0.682,0.993,0.881,0.993
			c0.428,0,0.483-1.199,0.209-2.324C341.659,318.706,342.077,304.222,342.062,304.2z"/>
		<path fill="#F1F1F1" d="M342.062,304.19v0.01l0,0C342.062,304.19,342.062,304.19,342.062,304.19z"/>
	</g>
	<g>
		<path fill="#F1F1F1" d="M341.413,340.194c-0.421,2.835,1.062,7.335,0.825,9.002c-0.213,1.393,3.066,3.033,4.507,3.033
			c0.294,0,0.493-0.06,0.611-0.187c0.658-0.844-3.058-18.512-3.058-18.512C341.812,333.696,341.812,337.357,341.413,340.194z"/>
	</g>
	<g>
		<path fill="#F1F1F1" d="M390.809,103.371c-1.08,0.138-2.104,0.195-3.065,0.195c-4.683,0-8.123-1.334-12.057-1.334
			c-1.231,0-2.502,0.13-3.877,0.479c-6.673,1.666-12.999,0.329-11.34,3.998c1.099,2.405,2.184,3.085,5.814,3.085
			c1.905,0,4.512-0.185,8.189-0.422c0.469-0.023,0.919-0.038,1.355-0.038c7.805,0,10.8,4.432,18.496,4.432
			c1.673,0,3.583-0.208,5.815-0.723c9.861-2.277,9.559-4.362,14.941-4.362c1.712,0,4.006,0.211,7.389,0.692
			c2.483,0.36,4.977,0.515,7.431,0.515c11.355,0,21.985-3.32,28.577-5.51c5.166-1.727,10.625-3.312,17.629-3.312
			c3.82,0,8.091,0.473,13.023,1.646c14.004,3.329,33.667-1.334,42.34,11.666c8.662,13,16.99,30.667,13.99,43.33
			c-2.991,12.66-3.986,29.33-8.664,41.995c-4.663,12.668-13.326,42.003-18.672,50.334c-5.326,8.331-13.99,25.335-18.99,32.167
			c-4.999,6.827-18.667,26.826-26.662,37.823c-8.009,11.004-10.004,15.34-15.838,20.001c-5.833,4.668-5.563,9.523-8.255,9.959
			c0,0-2.218,8.592-3.568,12.044c-0.237,0.412-0.257,0.606-0.109,0.606c0.933,0,8.369-7.208,12.094-11.71
			c4.337-5.234,12.673-10.563,15.341-13.568c2.664-2.997,19.994-25.996,23.663-30.33c3.662-4.327,7.335-6.663,10.004-13.331
			c2.663-6.666,12.667-26.335,15.657-32.169c3-5.829,12.332-29.499,15.005-37.156c2.663-7.668,9.667-31.335,11.331-37.001
			c1.662-5.668,1.336-17.331,3.331-23.667c2-6.334,0.664-24.662,1.664-27.662c1.004-3-1.005-14.332-3.659-19.002
			c-2.663-4.665-2.663-15.999-7.005-18.335c-4.331-2.33-36.324-13.665-44.661-13.665c-4.994,0-9.516-2.517-17.591-2.517
			c-5.379,0-12.346,1.118-22.074,4.857c-24.336,9.332-21.99,11.324-44.667,12.331C390.486,100.708,398.808,102.374,390.809,103.371z
			"/>
	</g>
	<g>
		<path fill="#F1F1F1" d="M553.128,87.211c-2-4-3.502-4.498-4.497-7.502c-0.991-3.005-4-9.505-6.337-12.002
			c-2.331-2.498-10.984-11.831-15.326-13.663c-1.55-0.656-2.539-0.948-3.08-0.948c-0.957,0-0.417,0.948,1.08,2.448
			c2.332,2.332,4.664,3.836,7.327,6.836c2.359,2.652,1.07,5.307-1.46,5.307c-0.322,0-0.668-0.044-1.037-0.142
			c-3.161-0.833-8.664-1.504-17.999-4.995c-8.877-3.332-24.98-9.223-26.113-9.223c-0.062,0-0.08,0.017-0.053,0.053
			c0.499,0.668,1.498,0.663,7.006,4.163c5.492,3.5,4.828,4.836,7.657,6.998c2.839,2.17,2.839,4.673,13.331,9.167
			c10.507,4.5,19.668,9.004,25.009,15.666c5.331,6.663,7.995,12.833,14.326,23.171c6.337,10.329,3.17,16.497,3.503,25.823
			c0.331,9.334-2.669,29.501-3.166,38.003c-0.507,8.5-9.332,38.334-12.829,49.496c-3.507,11.166-13.833,34.664-18.672,44.664
			c-4.829,9.997-9.663,17.667-13.492,25.997c-3.84,8.333-30.51,39.498-35.008,45c-4.487,5.497-14.321,13.333-22.663,20.501
			c-5.241,4.493-9.014,6.827-10.61,6.827c-0.948,0-1.137-0.822-0.389-2.491c2.005-4.506,5.839-20.171,7.839-28.837
			c1.99-8.666,2.995-15.167,1.99-22.499c-0.995-7.334-2.492-34.998-1.166-44.33c1.336-9.336,4.512-19.999,7.175-27.501
			c2.664-7.495,0.995-29.662,0.825-34.496c-0.161-4.839-3.488-6.666-6.255-10.164c-1.759-2.222-2.394-3.433-3.119-3.433
			c-0.422,0-0.881,0.407-1.626,1.263c-2,2.331,0.839,1.666,2.498,4.17c1.668,2.5,1.838,3.495,2.18,7.661
			c0.327,4.168-0.673,12.833-1.175,17.331c-0.503,4.498-1.654,9.338-2.156,16.835c-0.508,7.503-1.834,6-2.673,10.997
			c-0.844,5.002-3.01,7.834-5.413,12.002c-0.592,1.04-1.265,1.47-2,1.47c-2.203,0-5.047-3.806-8.923-6.303
			c-5.157-3.334-14-15.17-17.161-19.166c-3.165-3.997-5.507-6.497-5.34-9.843c0.165-3.343-4.328-10.99-5.659-13.66
			c-0.635-1.266-1.615-1.896-2.394-1.896c-0.844,0-1.459,0.753-1.104,2.236c0.654,2.83,1.995,2.329,3.327,6.331
			c1.321,3.998,0,6.164-1.332,8.166c-0.574,0.848-1.219,1.218-2.223,1.218c-1.336,0-3.294-0.668-6.449-1.72
			c-5.494-1.827-5.996-7.998-9.498-12.493c-2.839-3.654-3.369-5.876-4.279-5.876c-0.209,0-0.441,0.119-0.721,0.37
			c-1.492,1.331,0.172,2.168,2.166,9.165c1.995,7.007,4.673,8.165,11.502,20.003c6.834,11.827,13.995,18.494,26.008,27.833
			c11.995,9.327,13.824,10.998,19.824,20.997c6.004,9.995,2.005,9.163,3.498,21.238c1.502,12.075,0.501,26.589-0.669,34.922
			c-1.166,8.33-10.99,22-13.663,25.838c-2.663,3.828-5.165,6.657-18.335,20.661c-8.758,9.309-13.611,11.005-17.374,11.005
			c-1.877,0-3.492-0.431-5.161-0.54c-5.004-0.337-9.047-1.929-9.891-4.432c-0.829-2.497-7.231-6.867-10.729-9.037
			c-3.507-2.166-3.507-6.161-6.673-9.497c-2.829-2.977-3.058-14.713-4.322-14.713c-0.16,0-0.326,0.173-0.512,0.547
			c-0.83,1.666-2.664,3.664-2.597,4.672c0.08,0.991,0.165,3.816,0,5.977c-0.166,2.171,2.293,4.336,4.44,4.839
			c2.143,0.488,3.995,1.844,3.653,4.18c-0.322,2.326-4.043,6.185-4.72,8.346c-0.654,2.175,0.625,8.805-0.038,12.81
			c-0.663,3.995-1.474,11.881,0.337,13.042c2.022,1.304,9.738,7.18,11.496,9.862c0.622,0.952,2.418,1.317,4.654,1.317
			c4.56,0,10.967-1.507,13.336-2.749c5.113-2.648,6.602-2.635,12.605-8.966c5.995-6.331,18.171-18.668,31.331-29.003
			c13.16-10.327,9.501-5.995,31.32-19.488c21.824-13.506,22.511-21.001,25.169-25.673c2.673-4.664,22.838-32.163,27.838-38.494
			c4.99-6.333,15.502-26.838,18.663-32.83c3.17-6,19.34-47.334,21.495-54.332c2.181-6.995,9.84-31.165,11.668-40.83
			c1.825-9.665,0.664-45.998,0-57.166C560.46,112.539,555.128,91.206,553.128,87.211z"/>
	</g>
	<g>
		<path fill="#F1F1F1" d="M541.147,28.73c0.261-3.441,2.318-4.687-0.687-15.014c-2.138-7.388-3.375-12.264-4.764-12.264
			c-0.544,0-1.123,0.782-1.786,2.495c-2.337,5.992-1.901,8.94-1.451,12.102c0.147,0.976,0.038,1.378-0.293,1.378
			c-0.749,0-2.62-1.983-5.369-4.044c-3.114-2.339-13.479-6.488-16.37-6.488c-0.823,0-1.032,0.334-0.293,1.157
			c3.337,3.658,9,13.658,14.326,20.369c5.337,6.708,7.341,7.959,9.658,14.288c2.347,6.336,1.347,13.335,5.347,16.003
			c4,2.666,11.662,13.997,11.662,13.997s-1.327-10.329-5.995-23.328C540.461,36.379,541.147,28.73,541.147,28.73z"/>
	</g>
	<g>
		<path fill="#F1F1F1" d="M311.292,398.802c-1.28-1.981-3.256-4.474-5.014-7.364c-0.47-0.744-0.935-1.507-1.394-2.236
			c1.593,6.312,3.805,15.103,3.819,15.145c1.909,4.939,2.621,6.604,2.63,6.617c2.915,6.293,4.071,7.231,8.384,10.748l0.199,0.166
			c0.513,0.417,1.213,0.796,2.005,1.241c2.748,1.502,6.436,3.924,10.383,11.331c2.692,1.327,7.753,4.186,12.909,9.384l9.526,3.062
			c4.421-5.569,6.288-10.691,5.014-14.512c-1.82-5.521-9.108-7.398-9.189-7.412c-3.184-1.345-3.056-5.563-2.948-9.279l0.038-1.373
			c0.015-2.673,0.445-4.503,0.745-5.848c0.16-0.693,0.284-1.237,0.308-1.678l0.076-1.186c0.117-1.811,0.227-3.525-0.066-5.744
			c-0.479-3.688-0.024-4.891,0.995-7.08c0.208-0.445,0.445-0.958,0.691-1.555c0.213-0.521,0.386-1.047,0.826-1.598
			c0.398-0.516,0.771-1.094,0.771-1.515v-0.006c-3-0.332-3.177-0.696-4.149-1.469c-3.63-2.854-4.593-4.299-3.958-7.241
			c0.137-0.65,0.326-1.261,0.07-2.55c-0.17-0.891-0.284-1.512-0.388-1.952c-0.394-1.669-0.407-2.252,0.284-3.785
			c0.242-0.535,0.663-1.433,1.245-3.215c1.205-3.597,4.337-5.533,6.626-6.95c0.749-0.47,1.948-1.211,2.266-1.609
			c-0.033-0.67-0.294-2.564-0.432-2.953c-0.294-0.372-0.701-0.571-1.421-0.571c-0.465,0-0.953,0.074-1.446,0.146
			c-1.01,0.159-2.138,0.277-3.081,0.06c-1.667-0.367-2.734-0.609-4.781-1.872c-4.843-2.984-5.232-4.244-5.057-9.332l0.038-1.038
			c0.076-2.334-0.086-4.355-0.214-5.825c-0.189-2.379-0.321-4.099,0.395-5.545c0.544-1.071,1.597-2.438,3.624-2.872
			c3.082-0.671,5.124-2.86,6.091-4.659c-2.782,1.574-5.616,2.74-7.261,1.832c-0.776-0.414-1.369-0.694-1.844-0.91
			c-3.089-1.413-3.266-2.772-2.952-6.016c0.128-1.228,0.304-2.534,0.487-3.896l0.049-0.35c0.346-2.515,0.7-5.028,0.79-7.609
			c0.081-1.827,0.868-5.402,1.792-9.551l0.042-0.216c0.612-2.756,2.021-9.096,2.39-12.4c-1.47,1.628-3.725,4.656-4.701,7.436
			c-0.498,1.382-1.091,2.692-1.769,4.213c-0.861,1.959-1.843,4.177-2.924,7.189c-0.246,0.704-0.63,1.855-1.042,3.127
			c-1.232,3.768-2.066,6.292-2.568,7.088c-7.384,11.788-8.104,18.018-8.176,18.932c0.957,4.296,1.769,8.085,1.659,16.902
			c-0.058,3.891-0.199,6.502-0.312,8.407c-0.204,3.646-0.28,4.872,0.715,8.512l0.038,0.268l0.251,5.666
			c0.186,0.729,0.38,1.498,0.588,2.303c0.772,3.095,1.645,6.602,2.839,9.208c0.573,1.266,0.564,2.224,1.081,3.223
			c1.525,3,2.07,4.09,2.848,8.052c0.043,2.863,0.844,7.492,0.844,10c0,2.763,1.283,4.577,1.109,5.782
			c-0.488,3.23-2.792,3.781-3.688,3.146c-1.606-1.123-1.606-1.123-3.294-3.474c-0.35-0.479-0.408-0.563-0.891-1.213
			c-0.862-1.161-0.654-1.232-2.36-2.147C321.452,408.384,317.864,406.977,311.292,398.802z"/>
	</g>
	<path fill="#F1F1F1" d="M355.47,447.88"/>
	<g>
		<path fill="#F1F1F1" d="M298.314,404.187c-0.322-0.861-1.993-3.19-3.747-6.247c-1.815-3.185-2.412-3.611-4.91-5.403
			c-0.829-0.587-1.384-0.871-1.729-1.013c0.195,0.771,0.854,2.302,2.398,4.496c3.635,5.143,4.279,8.801,2.962,17.019
			c-0.199,1.251-0.725,4.598-3.327,4.602c-1.218,0-2.45-0.782-3.891-1.682c-1.587-1.005-3.393-2.134-5.445-2.461
			c-6.616-1.065-31.169-14.975-40.202-20.672c-8.734-5.521-19.046-18.363-30.648-38.161c-6.876-11.748-7.369-17.181-7.895-22.937
			c-0.279-2.998-0.564-6.097-1.72-10.353c-3.322-12.07-3.749-27.769-0.967-35.001c0.948-2.461,1.991-4.715,3.081-7.099
			c1.815-3.94,3.697-8.011,5.393-13.57c2.389-7.805,6.062-10.793,14.952-18.006c1.82-1.479,3.871-3.142,6.17-5.069
			c8.521-7.097,12.459-11.807,15.066-14.928c1.54-1.855,2.563-3.076,3.795-3.896c0.958-0.637,2.801-2.044,4.943-3.675
			c4.488-3.41,10.621-8.071,14.397-10.13c4.563-2.495,6.919-5.846,8.815-8.545c0.236-0.324,0.445-0.63,0.653-0.924l-2.246,0.673
			c-1.649,1.052-4.616,3.149-9.891,7.308c-10.246,8.085-16.298,9.663-23.321,9.663c-1.815,0-3.711-0.109-5.701-0.225
			c-1.128-0.059-2.294-0.128-3.531-0.18c-2.398-0.097-4.336-1.049-5.758-2.808c-4.691-5.824-2.341-19.369-1.085-26.644
			c0.18-1.052,0.346-1.962,0.451-2.682c0.544-3.716-0.46-6.27-1.441-8.746c-0.715-1.813-1.397-3.519-1.445-5.545
			c-0.038-1.207-0.004-1.082,0.019-1.871c0.019-0.597,0.029-0.476-0.004-0.476c-0.015,0-0.019,0-0.029,0
			c-1.085,0-3.146,6.745-4.198,17.297c-0.204,2.073-0.303,2.804-0.37,3.646c-0.142,1.729-0.146,1.588-0.659,2.755
			c-0.403,0.933-1.166,2.538-2.777,7.391c-0.71,2.114-1.279,3.821-1.782,5.374c-2.526,7.833-3.298,10.154-9.819,21.724
			c-4.943,8.787-8.052,11.876-11.843,11.876c-1.085,0-2.118-0.241-3.217-0.493c-0.464-0.106-0.943-0.212-1.46-0.312
			c-4.729-0.905-6.559-10.795-8.317-20.361c-0.55-2.974-1.066-5.785-1.631-8.035c-1.829-7.336-8.563-35.937-8.288-39.887
			c0.052-0.645,0.038-1.14-0.01-1.502c-0.284,0.386-0.682,1.038-1.194,2.111c-1.64,3.453-0.308,13.945,0.763,22.381
			c0.464,3.592,0.895,6.979,1.104,9.758c0.441,5.704,1.763,10.471,3.299,15.994c1.009,3.692,0.893,7.875,1.921,12.855
			c2.009,9.87,1.002,19.267,1.002,23.99v0.947l0,0l1.182,0.023c0.379,2.012,1.292,6.979,1.975,19.21
			c0.701,12.784,1.165,13.402,2.312,18.217c0.91,3.774,2.565,10.102,5.385,26.394c4.394,25.29,6.85,28.561,9.613,32.342
			c1.336,1.825,2.891,3.898,4.682,8.409c4.512,11.266,12.939,16.334,16.972,18.774c0.806,0.479,1.46,0.871,1.905,1.199
			c1.644,1.193,3.502,4.426,5.644,8.156c1.801,3.128,3.654,6.354,5.36,8.273c1.763,2.006,5.512,4.554,9.838,7.526
			c4.664,3.188,9.948,6.81,14.971,11.122c1.924,1.659,3.541,3.019,4.915,4.18c5.61,4.759,7.506,6.351,11.283,11.412
			c1.801,3.1,5.725,11.279,7.36,14.729c2.726-2.688,9.369-8.966,14.265-11.389c1.01-6.572,2.38-8.961,3.559-11.34
			c0.451-0.877,2.179-4.421,2.179-5.212l0,0c0,0,1.064-2.562,1.281-5.808c0.11-1.602-0.27-3.377-0.464-4.613
			C299.094,407.333,298.409,405.325,298.314,404.187z"/>
	</g>
	<g>
		<path fill="#F1F1F1" d="M266.455,430.814l-5.266-3.976c-0.038-0.038-6.132-2.327-12.056-4.513
			c-7.677,15.251-12.488,31.288-14.54,38.62c13.734-12.023,28.302-18.668,37.477-22.005c-1.014-2.047-1.99-3.967-2.697-5.25
			C268.375,432.668,267.36,431.673,266.455,430.814z"/>
	</g>
	<g>
		<path fill="#F1F1F1" d="M232.917,466.519l-3.583,3.455l1.104-4.862c0.052-0.208,5.004-21.592,16.34-43.789
			c-1.602-0.56-3.246-1.114-4.967-1.645c-15.918,31.084-19.08,62.268-19.08,62.268c19.08-18.379,40.097-29.175,53.333-34.748
			c-0.667-1.402-1.64-3.44-2.667-5.567C263.668,445.127,247.465,452.515,232.917,466.519z"/>
	</g>
	<g>
		<path fill="#F1F1F1" d="M287.482,375.647l2.877-1.45l-0.754,3.118c-0.02,0.085-1.023,4.34-2.236,11.687
			c0.781-0.02,1.791,0.35,3.023,1.137c0.379,0.114,0.748,0.275,1.08,0.521c2.071-16.099,4.748-25.013,4.748-25.013
			c-17.562,7.407-30.984,19.415-41.248,32.965c1.416,0.792,2.843,1.588,4.288,2.374
			C267.815,389.366,277.298,380.821,287.482,375.647z"/>
	</g>
	<g>
		<path fill="#F1F1F1" d="M281.389,411.204c1.396-14.715,3.596-26.287,4.639-31.383c-8.364,4.835-16.781,12.905-24.127,22.597
			c8.228,4.422,16.061,8.203,19.108,8.691C281.146,411.124,281.26,411.181,281.389,411.204z"/>
	</g>
	<g>
		<path fill="#F1F1F1" d="M289.961,415.218c0.019,0,0.038-0.009,0.057-0.014c0.058-0.271,0.109-0.555,0.156-0.877l0.375-2.223
			c0.564-3.407,0.972-5.947,0.739-8.298c-0.394-2.228-1.327-4.118-2.933-6.394c-0.641-0.905-1.3-1.938-1.84-2.952
			c-0.73,5.037-1.46,11.019-2.066,17.781c1.081,0.521,2.043,1.128,2.904,1.668C288.383,414.555,289.44,415.218,289.961,415.218z"/>
	</g>
	<g>
		<path fill="#F1F1F1" d="M325.756,409.086c-1.024-1.374-2.143-2.331-3.683-3.653c-0.769-0.659-1.678-1.437-2.763-2.432
			c-1.109-1.009-1.711-1.479-2.219-1.882c-0.856-0.673-1.416-1.113-4.018-3.947c-1.422-1.564-3.119-4.322-4.735-6.995
			c-1.754-2.853-3.56-5.801-5.312-7.781l-3.317-3.769l1.252,4.872c0.061,0.271,5.298,21.057,5.431,21.544
			c0.994,2.578,1.657,4.28,2.089,5.347c-1.498,1.293-2.499,3.132-2.499,5.231c0,3.887,3.245,7.052,7.24,7.052
			c1.076,0,2.058-0.261,2.986-0.678c0.214,0.188,0.389,0.379,0.625,0.573c1.043,1,1.717,1.626,3.006,2.602l1.314,1.186
			c0.256,0.203,0.108,0.369,0.729,0.649c0.487,0.228,0.135,0.512,0.836,0.839c1.361,1.123,2.281,2.648,2.281,4.876
			c0,0.322,0,0.327,0,0.645c-4-1.806-8.445-2.525-14.285-2.525c-6.299,0-10.218,1.203-15.449,3.27
			c0.934-5.266,2.253-7.942,3.338-10.122c0.455-0.91,0.89-1.782,1.245-2.797c0.047-0.198,1.205-4.729,1.451-8.209
			c0.128-1.886-0.047-3.037-0.26-4.368c-0.127-0.777-0.265-1.621-0.341-2.759l-0.071-0.322c-0.08-0.208-1.908-5.217-3.956-8.796
			c-0.545-0.957-1-1.683-1.436-2.303c0.464-5.156,1.217-10.838,1.682-13.578c3.261-19.207,0.598-15.776,7.886-18.719
			c1.806-0.728,4.725-1.434,8.047-1.657c1.101,0.104,3.573,0.244,6.014,0.362c-0.108,2.496,0,4.059,0.854,7.245l0.247,5.651
			l0.018,0.09c-1.118-0.855-2.583-1.387-4.237-1.387c-3.56,0-6.351,2.41-6.351,5.467c0,3.066,2.767,5.474,6.33,5.474
			c2.483,0,4.546-1.189,5.589-2.947c0.031,0.095-0.002,0.198,0.012,0.308l0.556,2.512c0.83,3.143,1.945,6.166,3.281,9.085
			c1.962,4.303,1.934,8.729,2.143,12.028c0.023,2.227-0.669,4.867-0.347,7.189L325.756,409.086z"/>
	</g>
	<g>
		<path fill="#F1F1F1" d="M308.96,415.621c0,2.265,1.915,4.1,4.28,4.1c0.184,0,0.364-0.029,0.549-0.052
			c-1.388-1.531-2.54-3.313-4.028-6.384C309.263,413.948,308.96,414.744,308.96,415.621z"/>
	</g>
	<g>
		<path fill="#F1F1F1" d="M319.149,355.124c-0.109-0.547-0.228-1.078-0.346-1.584c-3.313,0.106-3.048,5.608-3.048,5.608
			c1.251,0.09,2.289,0.145,3.18,0.168c0.005-0.133,0.024-0.256,0.033-0.394C319.012,357.898,319.088,356.652,319.149,355.124z"/>
	</g>
	<g>
		<path fill="#F1F1F1" d="M394.112,458.202l0.877,4.104l-3.257-2.645c-10.695-8.688-13.425-9.702-20.714-12.436
			c-1.849-0.692-3.994-1.498-6.625-2.56c-1.138-0.455-2.568-0.977-4.219-1.525c-0.79,1.421-1.776,2.899-2.938,4.426
			c2.427,0.791,4.706,1.597,6.559,2.341c16.748,6.759,22.422,10.648,39.747,24.71c-2.753-13.032-6.422-30.018-12.653-47.102
			c-1.834,1.53-3.285,2.394-4.9,3.217C389.396,439.682,392.15,448.894,394.112,458.202z"/>
		<path fill="#F1F1F1" d="M367.701,435.653c-2.236,0-3.938-0.341-5.151-1.028c0.057,1.824-0.304,3.758-1.109,5.806
			c1.579,0.54,2.953,1.042,4.066,1.479c2.603,1.052,4.729,1.848,6.555,2.539c6.801,2.551,9.796,3.669,18.226,10.266
			c-1.806-7.677-4.146-15.27-6.966-22.672c-0.365,0.186-0.749,0.379-1.161,0.593C379.421,434.061,372.658,435.653,367.701,435.653z"
			/>
	</g>
	<g>
		<path fill="#F1F1F1" d="M360.412,385.911c0.118,0.257,0.237,0.484,0.351,0.73c0.901,1.062,1.778,2.151,2.649,3.265
			c4.758,2.952,10.549,7.076,11.587,10.223c0.058,0.151,0.19,0.317,0.347,0.492c0.629-0.597,1.26-1.203,1.938-1.834
			c-4.914-7.946-10.71-15.397-17.667-21.809c-1.587-1.475-3.185-2.776-4.748-3.969c0.459,2.713,1.203,6.646,2.194,7.68
			C358.726,382.442,359.616,384.291,360.412,385.911z"/>
	</g>
	<g>
		<path fill="#F1F1F1" d="M385.014,403.176c-0.721-0.099-1.47-0.217-2.257-0.271c-0.985-0.057-1.862-0.184-2.657-0.336
			c-0.546-0.203-1.039-0.402-1.441-0.577c1.721,0.748,4.811,1.875,7.929,1.875l0,0c1.658,0,3.137-0.336,4.378-0.989
			c-1.279,0.445-2.307,0.577-3.203,0.577C386.838,403.455,385.942,403.323,385.014,403.176z"/>
		<path fill="#F1F1F1" d="M433.119,311.432c-0.781-3.149-1.506-6.116-1.17-8.258c0.559-3.571,0.02-6.717-1.711-9.902
			c-1.113-2.054-4.726-5.386-7.734-7.987c2.745,5.71,4.402,11.032,4.772,15.369c0.257,2.936,0.892,5.468,1.649,8.4
			c1.113,4.336,2.36,9.246,2.606,16.803c0.303,9.722-0.493,20.546-8.304,33.873l-0.653,1.116
			c-6.919,11.791-9.511,16.206-17.658,21.688l-0.687,0.47c-7.351,4.942-20.545,13.818-25.572,18.99
			c0.402,0.175,0.896,0.374,1.441,0.577c0.795,0.152,1.672,0.279,2.657,0.336c0.787,0.054,1.536,0.172,2.257,0.271
			c0.929,0.147,1.824,0.279,2.748,0.279c0.896,0,1.924-0.132,3.203-0.577c0.338-0.181,0.674-0.37,0.981-0.602
			c5.669-4.181,10.033-8.555,12.919-11.45c0.848-0.849,1.54-1.55,2.076-2.043c2.222-2.057,8.695-9.436,11.103-12.34
			c1.101-1.347,2.796-4.367,4.44-7.28c1.726-3.047,3.347-5.931,4.489-7.305c1.34-1.614,2.899-6.466,4.033-10.012
			c0.572-1.803,1.074-3.362,1.511-4.438c0.839-2.087,1.129-6.971,1.365-10.886c0.113-1.941,0.218-3.779,0.384-5.139
			c0.498-4.088,0.498-10.132,0-14.381C434.077,315.344,433.589,313.359,433.119,311.432z"/>
		<path fill="#F1F1F1" d="M390.97,402.878c0.337-0.181,0.669-0.37,0.977-0.602c-0.308,0.231-0.644,0.421-0.981,0.602H390.97z"/>
	</g>
	<g>
		<path fill="#F1F1F1" d="M57.48,148.193c-0.185-0.083-0.636-0.199-1.569-0.199c-3.37,0-8.185,1.545-8.825,2.256
			c-0.644,1.488-2.123,3.043-3.682,4.707c-0.806,0.85-1.63,1.734-2.322,2.587c-1.953,2.44-15.554,5.926-20.966,7.234l-0.146,3.599
			c1.171-0.263,2.872-0.59,5.208-1.034c4.721-0.9,13.416-2.561,14.857-3.597c0.696-2.206,1.289-2.645,13.795-11.99
			C56.707,149.601,57.352,148.546,57.48,148.193z"/>
	</g>
</g>
</svg>
